<svg width="49" height="34" viewBox="0 0 49 34" fill="none" xmlns="http://www.w3.org/2000/svg">
<path d="M7.03691 29.2718C10.9233 29.2718 14.0738 26.1185 14.0738 22.2287C14.0738 18.3389 10.9233 15.1855 7.03691 15.1855C3.15053 15.1855 0 18.3389 0 22.2287C0 26.1185 3.15053 29.2718 7.03691 29.2718Z" fill="#FF5000"/>
<path d="M41.1344 29.2718C45.0208 29.2718 48.1713 26.1185 48.1713 22.2287C48.1713 18.3389 45.0208 15.1855 41.1344 15.1855C37.248 15.1855 34.0975 18.3389 34.0975 22.2287C34.0975 26.1185 37.248 29.2718 41.1344 29.2718Z" fill="#FF5000"/>
<path d="M39.1023 23.4302C39.1023 27.0135 36.1905 29.9279 32.6104 29.9279C29.0304 29.9279 26.1185 27.0135 26.1185 23.4302V15.0699C27.436 13.6119 30.2986 10.0214 30.2986 6.3468C30.2986 2.78824 27.5693 0 24.085 0C20.6006 0 17.8728 2.78824 17.8728 6.3468C17.8728 10.0229 20.7354 13.6134 22.0529 15.0699V23.4302C22.0529 27.0135 19.141 29.9279 15.5609 29.9279C11.9809 29.9279 9.06901 27.0135 9.06901 23.4302H5.00485C5.00485 29.2562 9.74009 33.9957 15.5609 33.9957C19.0584 33.9957 22.163 32.2824 24.085 29.6523C26.0069 32.2824 29.1115 33.9957 32.609 33.9957C38.4298 33.9957 43.1651 29.2562 43.1651 23.4302H39.1023ZM24.085 4.06776C25.33 4.06776 26.233 5.02522 26.233 6.3468C26.233 7.886 25.1184 9.7603 24.0821 11.1399C23.0472 9.7661 21.9369 7.89615 21.9369 6.3468C21.9384 5.02667 22.8414 4.06776 24.085 4.06776Z" fill="white"/>
</svg>
