<svg width="94" height="33" viewBox="0 0 94 33" fill="none" xmlns="http://www.w3.org/2000/svg">
<path d="M3.48337 28.9791C3.06801 29.3431 3.02636 29.9749 3.39036 30.3903C3.75435 30.8056 4.38615 30.8473 4.80151 30.4833L3.48337 28.9791ZM92.3165 14.733C92.823 14.5129 93.0551 13.9238 92.8349 13.4173L89.247 5.16337C89.0268 4.65686 88.4377 4.42475 87.9312 4.64492C87.4247 4.86509 87.1926 5.45418 87.4128 5.96068L90.6021 13.2975L83.2652 16.4867C82.7587 16.7069 82.5266 17.296 82.7468 17.8025C82.967 18.309 83.5561 18.5411 84.0626 18.3209L92.3165 14.733ZM4.80151 30.4833C17.9061 18.9994 53.6223 -0.198732 91.5512 14.7463L92.2844 12.8855C53.3785 -2.44447 16.8812 17.2382 3.48337 28.9791L4.80151 30.4833Z" fill="#002054"/>
</svg>
