<svg width="38" height="29" viewBox="0 0 38 29" fill="none" xmlns="http://www.w3.org/2000/svg">
<path d="M30.0609 25.3488C32.6931 25.3488 34.827 23.227 34.827 20.6096C34.827 17.9922 32.6931 15.8704 30.0609 15.8704C27.4286 15.8704 25.2947 17.9922 25.2947 20.6096C25.2947 23.227 27.4286 25.3488 30.0609 25.3488Z" fill="#FF5000"/>
<path d="M2.23286 14.5C0.880966 13.4662 5.34058e-05 11.8201 5.34058e-05 9.96986V5.43972H2.2285C2.2285 6.48241 3.06144 7.32987 4.08627 7.32987H4.75349C7.3439 7.32987 9.46332 9.41524 9.57234 12.0242L12.2631 9.64596C14.0118 8.1019 15.9742 6.9616 18.1111 6.25612L16.4321 0H17.8887C20.4878 0 22.943 0.696603 24.8095 1.96114C26.4579 3.07925 27.4959 4.53014 27.8098 6.12301C31.8394 7.3343 35.3456 10.0897 37.6263 13.9143L37.9752 14.5L37.6263 15.0857C35.3456 18.9103 31.8437 21.6657 27.8098 22.877C27.4915 24.4743 26.4536 25.9252 24.8095 27.0389C22.9474 28.3034 20.4878 29 17.893 29H16.4365L18.1111 22.7439C15.9786 22.0384 14.0118 20.9025 12.2631 19.354L9.57234 16.9758C9.46332 19.5848 7.3439 21.6701 4.75349 21.6701H4.08627C3.06144 21.6701 2.2285 22.5176 2.2285 23.5603H5.34058e-05V19.0346C5.34058e-05 17.1844 0.876606 15.5338 2.23286 14.5ZM19.3758 2.36047L20.2698 5.7015C21.9095 5.39979 23.571 5.35542 25.2412 5.57283C24.3211 3.95777 22.0752 2.70211 19.3758 2.36047ZM29.044 20.0018C31.5603 18.8394 33.7495 16.9492 35.3543 14.5044C33.7495 12.0597 31.5603 10.1651 29.044 9.00704C27.208 12.4279 27.208 16.5721 29.044 20.0018ZM25.2412 23.4316C24.5435 23.5248 23.8457 23.5692 23.148 23.5692C22.1842 23.5692 21.2204 23.4804 20.2698 23.3074L19.3758 26.6484C22.0752 26.3023 24.3211 25.0422 25.2412 23.4316ZM13.724 17.6502C15.3855 19.1189 17.2694 20.166 19.3234 20.7561C21.2946 21.3241 23.3224 21.4483 25.3503 21.1244C25.8823 21.0401 26.41 20.9247 26.9289 20.7783C24.9447 16.8383 24.9447 12.1617 26.9289 8.22169C26.41 8.07528 25.8867 7.95991 25.3503 7.87561C23.3181 7.55171 21.2902 7.67595 19.3234 8.24388C17.2694 8.834 15.3855 9.88112 13.724 11.3498L10.1611 14.5L13.724 17.6502ZM7.34826 12.2371C7.34826 10.7818 6.18388 9.59272 4.74913 9.59272H4.08191C3.41468 9.59272 2.78234 9.42855 2.22414 9.14015V9.9743C2.22414 11.8467 3.72431 13.373 5.56463 13.373H7.34826V12.2371ZM2.2285 19.8643C2.7867 19.5759 3.41468 19.4117 4.08627 19.4117H4.75349C6.18824 19.4117 7.35262 18.2271 7.35262 16.7673V15.6359H5.56899C3.72867 15.6359 2.2285 17.1622 2.2285 19.0346V19.8643Z" fill="#002B70"/>
<path d="M29.5457 12.9161C29.5457 13.5417 30.0428 14.0475 30.6577 14.0475C31.2726 14.0475 31.7698 13.5417 31.7698 12.9161C31.7698 12.2905 31.2726 11.7847 30.6577 11.7847C30.0428 11.7847 29.5457 12.2905 29.5457 12.9161Z" fill="#002B70"/>
</svg>
