<svg width="44" height="25" viewBox="0 0 44 25" fill="none" xmlns="http://www.w3.org/2000/svg">
<path d="M24.8917 24.7392C27.0669 24.7392 28.8303 22.9837 28.8303 20.8181C28.8303 18.6526 27.0669 16.8971 24.8917 16.8971C22.7164 16.8971 20.953 18.6526 20.953 20.8181C20.953 22.9837 22.7164 24.7392 24.8917 24.7392Z" fill="#FF5000"/>
<path fill-rule="evenodd" clip-rule="evenodd" d="M43 17.6806C42.3426 17.6806 41.3732 17.4747 40.5558 16.8472C40.174 16.5541 39.8339 16.1753 39.5764 15.6983C39.3189 16.1753 38.9788 16.5541 38.597 16.8472C37.7796 17.4747 36.8102 17.6806 36.1528 17.6806C35.4955 17.6806 34.5261 17.4747 33.7086 16.8472C33.3269 16.5541 32.9868 16.1753 32.7293 15.6984C32.6761 15.7969 32.6194 15.8912 32.5595 15.9815C32.3163 15.7492 32.0417 15.5535 31.7434 15.4024C32.0305 14.9582 32.2255 14.3604 32.2293 13.5542L32.2293 13.5303H32.2294H33.2293H33.2294L33.2293 13.5542C33.2354 14.8499 33.7355 15.6071 34.3176 16.0539C34.9266 16.5215 35.669 16.6806 36.1528 16.6806C36.6366 16.6806 37.379 16.5215 37.9881 16.0539C38.5737 15.6044 39.0764 14.8406 39.0764 13.5303H39.0764H40.0764H40.0764C40.0764 14.8406 40.5791 15.6044 41.1647 16.0539C41.7738 16.5215 42.5162 16.6806 43 16.6806V17.6806Z" fill="#002B70"/>
<path d="M40.5558 16.8472L40.8603 16.4506H40.8603L40.5558 16.8472ZM43 17.6806H43.5V18.1806H43V17.6806ZM39.5764 15.6983L39.1365 15.4607L39.5764 14.6458L40.0164 15.4607L39.5764 15.6983ZM38.597 16.8472L38.9015 17.2438L38.597 16.8472ZM33.7086 16.8472L34.0131 16.4506L33.7086 16.8472ZM32.7293 15.6984L32.2894 15.4608L32.7293 14.646L33.1693 15.4608L32.7293 15.6984ZM32.5595 15.9815L32.9762 16.2579L32.6461 16.7555L32.2142 16.3431L32.5595 15.9815ZM31.7434 15.4024L31.5175 15.8485L31.022 15.5975L31.3234 15.131L31.7434 15.4024ZM32.2293 13.5542L32.7293 13.5532L32.7293 13.5565L32.2293 13.5542ZM32.2293 13.5303L31.7293 13.5313L31.7283 13.0303H32.2293V13.5303ZM33.2294 13.5303V13.0303H33.7303L33.7294 13.5313L33.2294 13.5303ZM33.2293 13.5542L32.7293 13.5565L32.7293 13.5532L33.2293 13.5542ZM34.3176 16.0539L34.622 15.6573V15.6573L34.3176 16.0539ZM37.9881 16.0539L37.6836 15.6573H37.6836L37.9881 16.0539ZM39.0764 13.5303H38.5764V13.0303H39.0764V13.5303ZM40.0764 13.5303V13.0303H40.5764V13.5303H40.0764ZM41.1647 16.0539L41.4692 15.6573H41.4692L41.1647 16.0539ZM43 16.6806V16.1806H43.5V16.6806H43ZM40.8603 16.4506C41.5734 16.9981 42.4293 17.1806 43 17.1806V18.1806C42.2559 18.1806 41.173 17.9513 40.2513 17.2438L40.8603 16.4506ZM40.0164 15.4607C40.2383 15.8717 40.5306 16.1975 40.8603 16.4506L40.2513 17.2438C39.8174 16.9107 39.4296 16.4788 39.1365 15.9358L40.0164 15.4607ZM38.2926 16.4506C38.6222 16.1975 38.9146 15.8717 39.1365 15.4607L40.0164 15.9358C39.7232 16.4788 39.3354 16.9107 38.9015 17.2438L38.2926 16.4506ZM36.1528 17.1806C36.7235 17.1806 37.5794 16.9981 38.2926 16.4506L38.9015 17.2438C37.9798 17.9513 36.8969 18.1806 36.1528 18.1806V17.1806ZM34.0131 16.4506C34.7263 16.9981 35.5821 17.1806 36.1528 17.1806V18.1806C35.4088 18.1806 34.3259 17.9513 33.4042 17.2438L34.0131 16.4506ZM33.1693 15.4608C33.3912 15.8718 33.6835 16.1975 34.0131 16.4506L33.4042 17.2438C32.9703 16.9107 32.5825 16.4789 32.2894 15.9359L33.1693 15.4608ZM32.1429 15.7051C32.1944 15.6274 32.2434 15.546 32.2894 15.4608L33.1693 15.9359C33.1089 16.0478 33.0444 16.1551 32.9762 16.2579L32.1429 15.7051ZM32.2142 16.3431C32.0054 16.1437 31.7708 15.9768 31.5175 15.8485L31.9693 14.9563C32.3126 15.1302 32.6272 15.3547 32.9048 15.6199L32.2142 16.3431ZM32.7293 13.5565C32.7251 14.4456 32.5087 15.1394 32.1633 15.6738L31.3234 15.131C31.5522 14.777 31.7259 14.2752 31.7293 13.5518L32.7293 13.5565ZM32.7293 13.5293L32.7293 13.5532L31.7293 13.5552L31.7293 13.5313L32.7293 13.5293ZM32.2294 14.0303H32.2293V13.0303H32.2294V14.0303ZM33.2293 14.0303H32.2294V13.0303H33.2293V14.0303ZM33.2294 14.0303H33.2293V13.0303H33.2294V14.0303ZM32.7293 13.5532L32.7294 13.5293L33.7294 13.5313L33.7293 13.5552L32.7293 13.5532ZM34.0131 16.4506C33.3045 15.9066 32.7361 15.0018 32.7293 13.5565L33.7293 13.5518C33.7347 14.6979 34.1665 15.3076 34.622 15.6573L34.0131 16.4506ZM36.1528 17.1806C35.5821 17.1806 34.7263 16.998 34.0131 16.4506L34.622 15.6573C35.127 16.045 35.756 16.1806 36.1528 16.1806V17.1806ZM38.2926 16.4506C37.5794 16.998 36.7236 17.1806 36.1528 17.1806V16.1806C36.5497 16.1806 37.1787 16.045 37.6836 15.6573L38.2926 16.4506ZM39.5764 13.5303C39.5764 14.9905 39.0058 15.903 38.2926 16.4506L37.6836 15.6573C38.1417 15.3057 38.5764 14.6906 38.5764 13.5303H39.5764ZM39.0764 14.0303H39.0764V13.0303H39.0764V14.0303ZM40.0764 14.0303H39.0764V13.0303H40.0764V14.0303ZM40.0764 14.0303H40.0764V13.0303H40.0764V14.0303ZM40.8603 16.4506C40.1471 15.903 39.5764 14.9905 39.5764 13.5303H40.5764C40.5764 14.6906 41.0111 15.3057 41.4692 15.6573L40.8603 16.4506ZM43 17.1806C42.4293 17.1806 41.5734 16.998 40.8603 16.4506L41.4692 15.6573C41.9742 16.045 42.6031 16.1806 43 16.1806V17.1806ZM42.5 17.6806V16.6806H43.5V17.6806H42.5Z" fill="#002B70"/>
<path fill-rule="evenodd" clip-rule="evenodd" d="M1 17.6806C1.65738 17.6806 2.62677 17.4747 3.4442 16.8472C3.82595 16.5541 4.166 16.1753 4.42352 15.6984C4.68105 16.1753 5.02109 16.5541 5.40284 16.8472C6.22028 17.4747 7.18967 17.6806 7.84705 17.6806C8.50443 17.6806 9.47382 17.4747 10.2913 16.8472C10.6731 16.5541 11.0131 16.1752 11.2707 15.6982C11.3239 15.7967 11.3806 15.8911 11.4405 15.9813C11.6838 15.7491 11.9583 15.5534 12.2567 15.4023C11.9668 14.9537 11.7708 14.3486 11.7708 13.5303H11.7706H10.7708H10.7706C10.7706 14.8406 10.2679 15.6044 9.68231 16.0539C9.07325 16.5215 8.33086 16.6806 7.84705 16.6806C7.36323 16.6806 6.62084 16.5215 6.01179 16.0539C5.42963 15.607 4.92946 14.8496 4.92353 13.5536L4.92357 13.5303H4.92347H3.92357H3.92347L3.92352 13.5536C3.91758 14.8496 3.41741 15.607 2.83526 16.0539C2.22621 16.5215 1.48381 16.6806 1 16.6806V17.6806Z" fill="#002B70"/>
<path d="M3.4442 16.8472L3.13973 16.4506L3.4442 16.8472ZM1 17.6806H0.5V18.1806H1V17.6806ZM4.42352 15.6984L4.86348 15.4608L4.42352 14.646L3.98356 15.4608L4.42352 15.6984ZM5.40284 16.8472L5.70731 16.4506L5.70731 16.4506L5.40284 16.8472ZM10.2913 16.8472L9.98678 16.4506V16.4506L10.2913 16.8472ZM11.2707 15.6982L11.7107 15.4606L11.2707 14.6457L10.8307 15.4606L11.2707 15.6982ZM11.4405 15.9813L11.0238 16.2577L11.3539 16.7553L11.7858 16.343L11.4405 15.9813ZM12.2567 15.4023L12.4825 15.8484L12.9781 15.5975L12.6766 15.1309L12.2567 15.4023ZM11.7708 13.5303H12.2708V13.0303H11.7708V13.5303ZM10.7706 13.5303V13.0303H10.2706V13.5303H10.7706ZM9.68231 16.0539L9.98678 16.4506L9.68231 16.0539ZM6.01179 16.0539L5.70731 16.4506H5.70731L6.01179 16.0539ZM4.92353 13.5536L4.42352 13.5527L4.42353 13.5559L4.92353 13.5536ZM4.92357 13.5303L5.42357 13.5312L5.42453 13.0303H4.92357V13.5303ZM3.92347 13.5303V13.0303H3.42251L3.42347 13.5312L3.92347 13.5303ZM3.92352 13.5536L4.42352 13.5559L4.42352 13.5527L3.92352 13.5536ZM2.83526 16.0539L2.53079 15.6573H2.53079L2.83526 16.0539ZM1 16.6806V16.1806H0.5V16.6806H1ZM3.13973 16.4506C2.42656 16.9981 1.5707 17.1806 1 17.1806V18.1806C1.74405 18.1806 2.82698 17.9513 3.74868 17.2438L3.13973 16.4506ZM3.98356 15.4608C3.76167 15.8718 3.46937 16.1975 3.13973 16.4506L3.74868 17.2438C4.18254 16.9107 4.57033 16.4789 4.86348 15.9359L3.98356 15.4608ZM5.70731 16.4506C5.37768 16.1975 5.08538 15.8718 4.86348 15.4608L3.98356 15.9359C4.27672 16.4789 4.6645 16.9107 5.09837 17.2438L5.70731 16.4506ZM7.84705 17.1806C7.27634 17.1806 6.42049 16.9981 5.70731 16.4506L5.09837 17.2438C6.02006 17.9513 7.10299 18.1806 7.84705 18.1806V17.1806ZM9.98678 16.4506C9.27361 16.9981 8.41775 17.1806 7.84705 17.1806V18.1806C8.5911 18.1806 9.67403 17.9513 10.5957 17.2438L9.98678 16.4506ZM10.8307 15.4606C10.6088 15.8717 10.3165 16.1975 9.98678 16.4506L10.5957 17.2438C11.0297 16.9106 11.4175 16.4787 11.7107 15.9357L10.8307 15.4606ZM11.8572 15.7049C11.8056 15.6272 11.7567 15.5458 11.7107 15.4606L10.8307 15.9357C10.8911 16.0476 10.9556 16.1549 11.0238 16.2577L11.8572 15.7049ZM11.7858 16.343C11.9946 16.1436 12.2292 15.9767 12.4825 15.8484L12.0308 14.9562C11.6875 15.1301 11.3729 15.3546 11.0952 15.6197L11.7858 16.343ZM11.2708 13.5303C11.2708 14.4318 11.4879 15.1339 11.8367 15.6737L12.6766 15.1309C12.4457 14.7735 12.2708 14.2653 12.2708 13.5303H11.2708ZM11.7706 14.0303H11.7708V13.0303H11.7706V14.0303ZM10.7708 14.0303H11.7706V13.0303H10.7708V14.0303ZM10.7706 14.0303H10.7708V13.0303H10.7706V14.0303ZM9.98678 16.4506C10.7 15.903 11.2706 14.9905 11.2706 13.5303H10.2706C10.2706 14.6906 9.83593 15.3057 9.37783 15.6573L9.98678 16.4506ZM7.84705 17.1806C8.41779 17.1806 9.27363 16.998 9.98678 16.4506L9.37783 15.6573C8.87287 16.045 8.24393 16.1806 7.84705 16.1806V17.1806ZM5.70731 16.4506C6.42046 16.998 7.27631 17.1806 7.84705 17.1806V16.1806C7.45016 16.1806 6.82122 16.045 6.31626 15.6573L5.70731 16.4506ZM4.42353 13.5559C4.43015 15.0016 4.99864 15.9065 5.70731 16.4506L6.31626 15.6573C5.86063 15.3076 5.42877 14.6977 5.42352 13.5513L4.42353 13.5559ZM4.42357 13.5293L4.42353 13.5527L5.42353 13.5546L5.42357 13.5312L4.42357 13.5293ZM4.92347 14.0303H4.92357V13.0303H4.92347V14.0303ZM3.92357 14.0303H4.92347V13.0303H3.92357V14.0303ZM3.92347 14.0303H3.92357V13.0303H3.92347V14.0303ZM4.42352 13.5527L4.42347 13.5293L3.42347 13.5312L3.42352 13.5546L4.42352 13.5527ZM3.13973 16.4506C3.84841 15.9065 4.41689 15.0016 4.42351 13.5559L3.42352 13.5513C3.41827 14.6977 2.98642 15.3076 2.53079 15.6573L3.13973 16.4506ZM1 17.1806C1.57074 17.1806 2.42658 16.998 3.13973 16.4506L2.53079 15.6573C2.02583 16.045 1.39688 16.1806 1 16.1806V17.1806ZM1.5 17.6806V16.6806H0.5V17.6806H1.5Z" fill="#002B70"/>
<path d="M22 21.8956L18.1941 21.8957H13C13 19.0598 13.1543 16.622 16.75 15.8117C18.3101 15.4602 19.9465 14.5963 19.9465 14.5963" stroke="#002B70" stroke-width="2"/>
<path d="M19.792 11.8964V14.3272C19.792 14.7323 20.4018 15.8121 21.9999 15.8121" stroke="#002B70" stroke-width="2"/>
<path d="M18.5936 6.22546L19 10.4891C19.0402 11.0568 19.7627 12.7706 22 12.7706" stroke="#002B70" stroke-width="2"/>
<path d="M22 1.00013H19.9255C19.1797 1.00013 17.9764 1.36242 17.9764 2.45861C17.9764 2.45861 17.9764 3.48167 17.9764 3.99712C17.9764 4.17253 17.8842 4.33396 17.7346 4.42556C17.0956 4.81682 16.1964 5.4334 16.1964 6.22414H22" stroke="#002B70" stroke-width="2"/>
<path d="M21.9999 21.8956L25.8058 21.8957H30.9999C30.9999 19.0598 30.8456 16.622 27.2499 15.8117C25.6898 15.4602 24.0534 14.5963 24.0534 14.5963" stroke="#002B70" stroke-width="2"/>
<path d="M24.2079 11.8964V14.3272C24.2079 14.7323 23.5981 15.8121 22 15.8121" stroke="#002B70" stroke-width="2"/>
<path d="M25.4064 6.22546L25 10.4891C24.9598 11.0568 24.2373 12.7706 22 12.7706" stroke="#002B70" stroke-width="2"/>
<path d="M22 1.00013H24.0745C24.8203 1.00013 26.0236 1.36242 26.0236 2.45861C26.0236 2.45861 26.0236 3.48167 26.0236 3.99712C26.0236 4.17253 26.1158 4.33396 26.2654 4.42556C26.9044 4.81682 27.8036 5.4334 27.8036 6.22414H22" stroke="#002B70" stroke-width="2"/>
<path d="M22 21.8956L18.1941 21.8957H13C13 19.0598 13.1543 16.622 16.75 15.8117C18.3101 15.4602 19.9465 14.5963 19.9465 14.5963" stroke="#002B70" stroke-width="2"/>
<path d="M19.792 11.8964V14.3272C19.792 14.7323 20.4018 15.8121 21.9999 15.8121" stroke="#002B70" stroke-width="2"/>
<path d="M18.5936 6.22546L19 10.4891C19.0402 11.0568 19.7627 12.7706 22 12.7706" stroke="#002B70" stroke-width="2"/>
<path d="M22 1.00013H19.9255C19.1797 1.00013 17.9764 1.36242 17.9764 2.45861C17.9764 2.45861 17.9764 3.48167 17.9764 3.99712C17.9764 4.17253 17.8842 4.33396 17.7346 4.42556C17.0956 4.81682 16.1964 5.4334 16.1964 6.22414H22" stroke="#002B70" stroke-width="2"/>
</svg>
