<svg width="30" height="31" viewBox="0 0 30 31" fill="none" xmlns="http://www.w3.org/2000/svg">
<path d="M17.592 8.42969C19.6634 8.42969 21.3425 6.75803 21.3425 4.69592C21.3425 2.63382 19.6634 0.962158 17.592 0.962158C15.5206 0.962158 13.8414 2.63382 13.8414 4.69592C13.8414 6.75803 15.5206 8.42969 17.592 8.42969Z" fill="#FF5000"/>
<path d="M30 29.0769H0V30.8489H30V29.0769Z" fill="#002B70"/>
<path d="M29.372 11.0445C28.7484 9.97093 27.7479 9.20348 26.544 8.88443C25.3443 8.56538 24.0883 8.72921 23.01 9.34576L14.2183 14.3988L7.86488 11.2428L4.2356 13.3296L8.18536 17.8653L5.87267 19.1932L3.10091 17.0418L0 18.8311L1.62841 21.6379L4.26158 26.1822L15.4656 24.3886L27.67 17.3738C29.8917 16.0976 30.6583 13.2563 29.372 11.0445ZM6.9987 13.7952L7.92984 13.2606L15.9116 17.2272L11.9662 19.495L9.7618 16.9642L6.9987 13.7952ZM3.1702 20.754L2.43395 19.4821L2.95799 19.1803L4.21394 20.1547L3.84582 20.366L3.1702 20.754ZM26.7778 15.8389L14.8592 22.6899L5.19272 24.2377L4.06236 22.2889L7.39281 20.3746L9.37635 19.232L11.5808 21.7629L19.6752 17.1108L16.1325 15.3517L23.9065 10.885C24.5691 10.5012 25.3443 10.4021 26.0849 10.6004C26.8255 10.7987 27.4448 11.273 27.8302 11.9327C28.6228 13.2994 28.1507 15.0499 26.7778 15.8389Z" fill="#002B70"/>
<path d="M19.7445 15.0241L21.4162 14.0626L22.3084 15.5975L20.6367 16.559L19.7445 15.0241Z" fill="#002B70"/>
<path d="M22.6245 13.3684L24.2962 12.407L25.1884 13.9419L23.5167 14.9033L22.6245 13.3684Z" fill="#002B70"/>
</svg>
