<svg width="34" height="29" viewBox="0 0 34 29" fill="none" xmlns="http://www.w3.org/2000/svg">
<path d="M22.2807 24.7563C24.5998 24.7563 26.4798 22.8738 26.4798 20.5515C26.4798 18.2292 24.5998 16.3466 22.2807 16.3466C19.9616 16.3466 18.0815 18.2292 18.0815 20.5515C18.0815 22.8738 19.9616 24.7563 22.2807 24.7563Z" fill="#FF5000"/>
<path d="M1.99775 0H0V19.1578H1.99775V0Z" fill="#002B70"/>
<path d="M4.72773 0H2.72998V19.1578H4.72773V0Z" fill="#002B70"/>
<path d="M7.4527 0H5.45496V19.1578H7.4527V0Z" fill="#002B70"/>
<path d="M11.5452 0H9.54749V19.1578H11.5452V0Z" fill="#002B70"/>
<path d="M14.2752 0H12.2775V19.1578H14.2752V0Z" fill="#002B70"/>
<path d="M32.9144 25.0719L30.3444 22.4984C30.8633 21.4739 31.1397 20.3377 31.1397 19.1578C31.1397 17.1816 30.3735 15.3268 28.9771 13.9284C27.6 12.5495 25.7719 11.7823 23.8275 11.7629V0H21.8346V12.0154C21.5873 12.0833 21.3401 12.161 21.1025 12.2533V0H19.1047V13.4137C18.9108 13.574 18.7217 13.7439 18.5374 13.9236C18.4792 13.9818 18.4259 14.0401 18.3725 14.0984V0H16.3796V19.1481V19.153C16.3796 21.1292 17.1458 22.984 18.5422 24.3824C19.9387 25.7808 21.791 26.548 23.7645 26.548C24.9428 26.548 26.0823 26.2712 27.1005 25.7516L29.6704 28.3251C30.1068 28.7621 30.6839 29 31.2948 29C31.9106 29 32.4877 28.7621 32.9192 28.3251C33.8114 27.4268 33.8114 25.9701 32.9144 25.0719ZM18.4404 20.0464C18.3919 19.7551 18.3677 19.4589 18.3677 19.1578V19.153C18.3677 17.7109 18.9302 16.3611 19.9436 15.3414C20.9618 14.3217 22.3147 13.7633 23.7548 13.7633C24.0554 13.7633 24.3561 13.7876 24.647 13.8362L18.4404 20.0464ZM28.1043 22.3334C28.1043 22.3382 28.1043 22.3382 28.1043 22.3334C28.0509 22.411 27.9927 22.479 27.9394 22.5519L27.9345 22.5567C27.8812 22.6247 27.823 22.6927 27.7648 22.7558C27.76 22.7606 27.76 22.7655 27.7551 22.7655C27.6921 22.8335 27.6291 22.9015 27.566 22.9646C27.503 23.0277 27.4351 23.0908 27.3672 23.1539C27.3624 23.1588 27.3575 23.1637 27.3527 23.1685C27.2896 23.2268 27.2266 23.2802 27.1587 23.3336L27.1539 23.3385C27.086 23.3967 27.0133 23.4501 26.9405 23.5035C26.9405 23.5035 26.9405 23.5035 26.9357 23.5035C26.8629 23.5569 26.7854 23.6104 26.7126 23.6589C25.8447 24.2319 24.8264 24.5426 23.7596 24.5426C22.3195 24.5426 20.9667 23.9794 19.9484 22.9646C19.6769 22.6927 19.4393 22.3965 19.2308 22.0809L26.6787 14.6228C26.9939 14.8267 27.2896 15.0646 27.5612 15.3365C27.8327 15.6084 28.0703 15.9046 28.274 16.2202L23.1778 21.3331L24.5888 22.7461L29.0692 18.2596C29.1177 18.5509 29.1419 18.8519 29.1419 19.153C29.1419 20.2212 28.8364 21.2409 28.2594 22.11C28.2109 22.1877 28.1576 22.2605 28.1043 22.3334ZM31.5033 26.9121C31.4306 26.985 31.3482 26.9995 31.29 26.9995C31.2318 26.9995 31.1494 26.985 31.0766 26.9121L28.754 24.5912C28.7589 24.5863 28.7637 24.5815 28.7734 24.5766C28.8413 24.5135 28.9092 24.4504 28.9771 24.3824C29.0449 24.3144 29.108 24.2464 29.171 24.1785C29.1759 24.1736 29.1807 24.1687 29.1904 24.159L31.5082 26.48C31.6197 26.6014 31.6197 26.7956 31.5033 26.9121Z" fill="#002B70"/>
</svg>
