<svg width="24" height="24" viewBox="0 0 24 24" fill="none" xmlns="http://www.w3.org/2000/svg">
<path fill-rule="evenodd" clip-rule="evenodd" d="M22.6667 0H1.33333C0.596954 0 0 0.584517 0 1.30556V22.1944C0 22.9155 0.596954 23.5 1.33333 23.5H12.82V14.4133H9.70333V10.8557H12.82V8.24458C12.82 5.20917 14.7133 3.55438 17.4867 3.55438C18.4197 3.55171 19.3522 3.59856 20.28 3.69472V6.85417H18.3667C16.8633 6.85417 16.57 7.5559 16.57 8.58403V10.8492H20.1667L19.7 14.4068H16.57V23.5H22.6667C23.403 23.5 24 22.9155 24 22.1944V1.30556C24 0.584517 23.403 0 22.6667 0Z" fill="#4267B2"/>
<path fill-rule="evenodd" clip-rule="evenodd" d="M16.5698 23.5V14.4133H19.6998L20.1665 10.8557H16.5698V8.59055C16.5698 7.56242 16.8631 6.86068 18.3665 6.86068H20.2731V3.68818C19.3453 3.59202 18.4128 3.54517 17.4798 3.54784C14.7131 3.54784 12.8131 5.20263 12.8131 8.23805V10.8492H9.70312V14.4068H12.8198V23.5H16.5698Z" fill="white"/>
</svg>
