<svg width="25" height="24" viewBox="0 0 25 24" fill="none" xmlns="http://www.w3.org/2000/svg">
<path d="M23.0955 9.707L13.3061 9.70654C12.8738 9.70654 12.5234 10.0496 12.5234 10.4729V13.535C12.5234 13.9582 12.8738 14.3013 13.3061 14.3013H18.8188C18.2152 15.8353 17.0885 17.1199 15.651 17.9362L18.0017 21.9206C21.7724 19.7852 24.0017 16.0386 24.0017 11.8445C24.0017 11.2473 23.9567 10.8204 23.8668 10.3397C23.7985 9.9745 23.4747 9.707 23.0955 9.707Z" fill="#167EE6"/>
<path d="M12.0003 18.9022C9.30242 18.9022 6.94723 17.4589 5.68231 15.3231L1.61328 17.6195C3.68398 21.1336 7.56308 23.5 12.0003 23.5C14.177 23.5 16.2309 22.9261 18.0003 21.9261V21.9206L15.6496 17.9361C14.5744 18.5468 13.3302 18.9022 12.0003 18.9022Z" fill="#12B347"/>
<path d="M18 21.9261V21.9206L15.6494 17.9362C14.5741 18.5467 13.33 18.9022 12 18.9022V23.5C14.1767 23.5 16.2308 22.9261 18 21.9261Z" fill="#0F993E"/>
<path d="M4.69566 11.75C4.69566 10.4479 5.05856 9.22969 5.68205 8.17691L1.61302 5.88043C0.586031 7.60745 0 9.61312 0 11.75C0 13.8868 0.586031 15.8925 1.61302 17.6195L5.68205 15.323C5.05856 14.2703 4.69566 13.0521 4.69566 11.75Z" fill="#FFD500"/>
<path d="M12.0003 4.59783C13.7595 4.59783 15.3755 5.20993 16.6377 6.2281C16.9491 6.47925 17.4017 6.46112 17.6869 6.18183L19.9027 4.01221C20.2263 3.69533 20.2033 3.17663 19.8575 2.88297C17.7428 1.08655 14.9912 0 12.0003 0C7.56308 0 3.68398 2.36639 1.61328 5.88046L5.68231 8.17694C6.94723 6.04115 9.30242 4.59783 12.0003 4.59783Z" fill="#FF4B26"/>
<path d="M16.6374 6.2281C16.9488 6.47925 17.4015 6.46112 17.6866 6.18183L19.9024 4.01221C20.226 3.69533 20.2029 3.17663 19.8573 2.88297C17.7425 1.08651 14.991 0 12 0V4.59783C13.7592 4.59783 15.3752 5.20993 16.6374 6.2281Z" fill="#D93F21"/>
</svg>
