<svg width="86" height="105" viewBox="0 0 86 105" fill="none" xmlns="http://www.w3.org/2000/svg">
<path fill-rule="evenodd" clip-rule="evenodd" d="M17.2 0H68.8C73.3617 0 77.7366 1.80612 80.9622 5.02103C84.1879 8.23594 86 12.5963 86 17.1429V68.5714C86 73.118 84.1879 77.4783 80.9622 80.6933C77.7366 83.9082 73.3617 85.7143 68.8 85.7143H62.5005L46.0767 101.957C45.6737 102.356 45.1955 102.671 44.6697 102.884C44.144 103.097 43.581 103.205 43.0134 103.2C42.4457 103.196 41.8846 103.079 41.3623 102.857C40.8401 102.635 40.3671 102.313 39.9707 101.908L24.1037 85.7143H17.2C12.6383 85.7143 8.26339 83.9082 5.03776 80.6933C1.81214 77.4783 0 73.118 0 68.5714V17.1429C0 12.5963 1.81214 8.23594 5.03776 5.02103C8.26339 1.80612 12.6383 0 17.2 0V0Z" fill="#ff5000"/>
<path d="M47.4594 31.0947C47.6707 30.6135 47.7914 30.0721 47.7914 29.5107C47.7914 27.295 45.9908 25.5005 43.7678 25.5005C41.5447 25.5005 39.7442 27.295 39.7442 29.5107C39.7442 30.0721 39.8649 30.6135 40.0761 31.0947C32.2001 32.7188 26.2049 39.3958 25.6617 47.5566H61.8738C61.3306 39.3958 55.3355 32.7188 47.4594 31.0947Z" fill="white"/>
<path d="M63.8857 49.5615H23.65V53.5718H63.8857V49.5615Z" fill="white"/>
</svg>
