<svg width="40" height="49" viewBox="0 0 40 49" fill="none" xmlns="http://www.w3.org/2000/svg">
<path fill-rule="evenodd" clip-rule="evenodd" d="M0 8C0 3.58172 3.58172 0 8 0H32C36.4183 0 40 3.58172 40 8V32C40 36.4183 36.4183 40 32 40H29.0693L21.4311 47.5798C20.6426 48.3623 19.3675 48.3523 18.5914 47.5574L11.2119 40H8C3.58172 40 0 36.4183 0 32V8Z" fill="#FF5000"/>
<path d="M13.2648 23.7924C13.2648 25.8603 11.5393 27.5594 9.38242 27.5594C7.22555 27.5594 5.5 25.8603 5.5 23.7924C5.5 21.7244 7.22555 20.0254 9.38242 20.0254C11.5393 20.0254 13.2648 21.7244 13.2648 23.7924Z" stroke="white"/>
<path d="M34.5 23.7924C34.5 25.8603 32.7745 27.5594 30.6176 27.5594C28.4607 27.5594 26.7352 25.8603 26.7352 23.7924C26.7352 21.7244 28.4607 20.0254 30.6176 20.0254C32.7745 20.0254 34.5 21.7244 34.5 23.7924Z" stroke="white"/>
<path d="M29.5513 23.7842C29.5513 25.8923 27.7963 27.6069 25.6385 27.6069C23.4807 27.6069 21.7257 25.8923 21.7257 23.7842V18.8658C22.5198 18.008 24.2451 15.8957 24.2451 13.7339C24.2451 11.6404 22.6001 10 20.5 10C18.3999 10 16.7558 11.6404 16.7558 13.7339C16.7558 15.8966 18.4811 18.0089 19.2752 18.8658V23.7842C19.2752 25.8923 17.5202 27.6069 15.3624 27.6069C13.2046 27.6069 11.4496 25.8923 11.4496 23.7842H9C9 27.2117 11.854 30 15.3624 30C17.4704 30 19.3416 28.9921 20.5 27.4447C21.6584 28.9921 23.5296 30 25.6376 30C29.146 30 32 27.2117 32 23.7842H29.5513ZM20.5 12.3931C21.2504 12.3931 21.7947 12.9564 21.7947 13.7339C21.7947 14.6394 21.1229 15.7421 20.4983 16.5537C19.8745 15.7455 19.2053 14.6454 19.2053 13.7339C19.2062 12.9572 19.7505 12.3931 20.5 12.3931Z" fill="white"/>
</svg>
