<svg width="40px" height="49px" viewBox="0 0 40 49" version="1.1" xmlns="http://www.w3.org/2000/svg" xmlns:xlink="http://www.w3.org/1999/xlink">
    <g id="Page-1" stroke="none" stroke-width="1" fill="none" fill-rule="evenodd">
        <g id="main_480" transform="translate(-116.000000, -3700.000000)">
            <g id="car" transform="translate(116.000000, 3700.000000)">
                <path d="M8,0 L32,0 C36.418278,-8.11624501e-16 40,3.581722 40,8 L40,32 C40,36.418278 36.418278,40 32,40 L29.0693359,40 L29.0693359,40 L21.4311405,47.5798007 C20.6471006,48.3578465 19.38078,48.3529874 18.6027342,47.5689475 C18.598942,47.5651261 18.5951653,47.5612894 18.591404,47.5574375 L11.2119141,40 L11.2119141,40 L8,40 C3.581722,40 5.41083001e-16,36.418278 0,32 L0,8 C-5.41083001e-16,3.581722 3.581722,8.11624501e-16 8,0 Z" id="Rectangle" fill="#ff5000"></path>
                <path d="M27.8626709,20.4051514 L25.3522949,17.8946533 C25.2644043,17.8066406 25.1451416,17.7573242 25.020874,17.7573242 L22.979126,17.7573242 L22.979126,17.7238769 C22.979126,16.7733154 22.2058106,16 21.255249,16 L13.723999,16 C12.7733154,16 12,16.7733154 12,17.7238769 L12,24.0001221 C12,24.9506836 12.7733154,25.7238769 13.723999,25.7238769 L14.0554199,25.7238769 C14.2731934,26.796875 15.2236328,27.6069336 16.3598633,27.6069336 C17.4959717,27.6069336 18.4465332,26.796875 18.6644287,25.7238769 L21.3355713,25.7238769 C21.5534668,26.796875 22.5039062,27.6069336 23.6401367,27.6069336 C24.7763672,27.6069336 25.7268066,26.796875 25.9447022,25.7238769 L27.53125,25.7238769 C27.7901611,25.7238769 28,25.5140381 28,25.2551269 L28,20.7365723 C28,20.6121826 27.9506836,20.493042 27.8626709,20.4051514 L27.8626709,20.4051514 Z M24.8266602,18.6948242 L26.3996582,20.2678223 L22.979126,20.2678223 L22.979126,18.6948242 L24.8266602,18.6948242 Z M16.3598633,26.6694336 C15.5802002,26.6694336 14.9459228,26.0349121 14.9459228,25.2551269 C14.9459228,24.4754639 15.5802002,23.8410644 16.3598633,23.8410644 C17.1396484,23.8410644 17.7739258,24.4754639 17.7739258,25.2551269 C17.7739258,26.0349121 17.1395264,26.6694336 16.3598633,26.6694336 Z M23.6401367,26.6694336 C22.8603516,26.6694336 22.2260742,26.0349121 22.2260742,25.2551269 C22.2260742,24.4754639 22.8603516,23.8410644 23.6401367,23.8410644 C24.4197998,23.8410644 25.0541992,24.4754639 25.0541992,25.2551269 C25.0541992,26.0349121 24.4197998,26.6694336 23.6401367,26.6694336 Z" id="Shape" fill="#FFFFFF" fill-rule="nonzero" transform="translate(20.000000, 21.803467) scale(-1, 1) translate(-20.000000, -21.803467) "></path>
            </g>
        </g>
    </g>
</svg>
