<svg xmlns="http://www.w3.org/2000/svg" width="44" height="66" viewBox="0 0 44 66">
    <g fill="none" fill-rule="evenodd">
        <path fill="#ff5000" d="M22 66c14.667-21.233 22-35.9 22-44C44 9.85 34.15 0 22 0S0 9.85 0 22c0 8.1 7.333 22.767 22 44z"/>
        <circle cx="15.5" cy="21.5" r="1.5" fill="#FFF" fill-rule="nonzero"/>
        <path fill="#FFF" fill-rule="nonzero" d="M33.323 22.936c0-.947.519-1.66.977-2.287.452-.62.92-1.261.588-1.975-.19-.413-.618-.657-1.17-.669-.71-.012-1.634.34-2.534.976a7.836 7.836 0 0 0-1.833 1.822c-.731-.791-1.738-1.58-2.86-2.23.037-.783-.007-2.247-.746-3.032A1.7 1.7 0 0 0 24.476 15c-1.758 0-4.126.828-5.353 1.845-2.171.201-3.978.99-5.173 1.667-1.574.891-2.938 2.068-3.648 3.147l-.302.459.815.818-.815.818.302.459c.71 1.079 2.074 2.255 3.648 3.147 1.164.66 2.91 1.426 5.008 1.65 1.17 1.083 3.678 1.99 5.518 1.99a1.7 1.7 0 0 0 1.269-.541c.78-.829.785-2.415.739-3.157 1.125-.65 2.134-1.44 2.867-2.233a7.837 7.837 0 0 0 1.833 1.822c.881.622 1.785.976 2.49.976h.044c.552-.012.979-.256 1.17-.669.331-.714-.136-1.355-.588-1.975-.458-.628-.977-1.34-.977-2.287zm-8.665-6.463c.224.237.333.796.366 1.363a12.818 12.818 0 0 0-3.144-.91c.865-.321 1.823-.532 2.596-.532.082 0 .126.02.182.079zm-.182 13.133c-.846 0-1.914-.252-2.839-.626a12.75 12.75 0 0 0 3.4-.95c-.03.775-.216 1.324-.379 1.497a.214.214 0 0 1-.182.079zm1.18-3.455c-1.227.698-3.176 1.53-5.489 1.53-.852 0-1.653-.112-2.388-.29a7.649 7.649 0 0 0 1.439-4.455 7.54 7.54 0 0 0-.89-3.57l-1.304.63a6.21 6.21 0 0 1 .732 2.94 6.318 6.318 0 0 1-1.436 3.997 12.452 12.452 0 0 1-1.624-.771c-1.32-.748-2.273-1.594-2.83-2.258l.964-.968-.964-.969c.557-.663 1.51-1.509 2.83-2.257 1.224-.693 3.167-1.52 5.471-1.52 2.313 0 4.262.833 5.49 1.53 1.458.83 2.46 1.773 2.98 2.46a6.729 6.729 0 0 0-.098.695l-.004.035.001.036c.003.175.02.463.09.76-.522.686-1.521 1.621-2.97 2.445zm6.55-.276a6.438 6.438 0 0 1-2.112-2.342 1.802 1.802 0 0 1-.096-.572c.023-.23.068-.527.101-.633.945-1.786 2.543-2.708 3.298-2.897-.088.135-.201.292-.296.422-.523.717-1.239 1.699-1.239 3.083 0 1.384.716 2.366 1.239 3.083.093.128.205.281.292.415-.276-.068-.69-.232-1.187-.56z"/>
    </g>
</svg>
