<svg width="40px" height="49px" viewBox="0 0 40 49" version="1.1" xmlns="http://www.w3.org/2000/svg" xmlns:xlink="http://www.w3.org/1999/xlink">
    <g id="Page-1" stroke="none" stroke-width="1" fill="none" fill-rule="evenodd">
        <g id="main_480" transform="translate(-139.000000, -2812.000000)">
            <g id="plane" transform="translate(139.000000, 2812.000000)">
                <path d="M8,0 L32,0 C36.418278,-8.11624501e-16 40,3.581722 40,8 L40,32 C40,36.418278 36.418278,40 32,40 L29.0693359,40 L29.0693359,40 L21.4311405,47.5798007 C20.6471006,48.3578465 19.38078,48.3529874 18.6027342,47.5689475 C18.598942,47.5651261 18.5951653,47.5612894 18.591404,47.5574375 L11.2119141,40 L11.2119141,40 L8,40 C3.581722,40 5.41083001e-16,36.418278 0,32 L0,8 C-5.41083001e-16,3.581722 3.581722,8.11624501e-16 8,0 Z" id="Rectangle" fill="#ff5000"></path>
                <path d="M26.6352941,13 C26.8758182,13 27.0875808,13.0313722 27.2705882,13.0941176 C27.4535957,13.1568631 27.5973851,13.2405224 27.7019608,13.345098 C27.9111122,13.5542494 28.0183006,13.9620885 28.0236664,14.5686275 C28.0287582,15.1751664 27.738565,15.7712389 27.1529412,16.3568627 L23.8431373,19.6666667 C23.8640524,20.1267997 23.898039,20.7281009 23.945098,21.4705882 C23.9921571,22.2130756 24.0366011,22.9424801 24.0784314,23.6588235 C24.1202616,24.375167 24.1568626,24.997383 24.1882353,25.5254902 C24.219608,26.0535974 24.2352941,26.3281045 24.2352941,26.3490196 C24.2457517,26.4326802 24.240523,26.5477117 24.2196078,26.6941176 C24.1986927,26.8405236 24.1098047,27.0078422 23.9529412,27.1960784 C23.7960776,27.3843147 23.5843151,27.6222208 23.3176471,27.9098039 C23.0509791,28.1973871 22.9176471,28.3411765 22.9176471,28.3411765 C22.8339865,28.424837 22.7424842,28.4901958 22.6431373,28.5372549 C22.5437904,28.584314 22.4470593,28.6078431 22.3529412,28.6078431 C22.3424836,28.6078431 22.3294118,28.6078431 22.3137255,28.6078431 C22.2980391,28.6078431 22.2849674,28.6078431 22.2745098,28.6078431 C22.2117644,28.5973856 22.1307195,28.5660133 22.0313725,28.5137255 C21.9320256,28.4614376 21.8509807,28.3568635 21.7882353,28.2 C21.7673202,28.1477122 21.6888896,27.9385639 21.5529412,27.572549 C21.4169928,27.2065341 21.2575173,26.7803946 21.0745098,26.2941176 C20.8915024,25.8078407 20.7058833,25.3032706 20.5176471,24.7803922 C20.3294108,24.2575137 20.1673209,23.8183024 20.0313725,23.4627451 L17.9921569,25.4392157 C17.9816993,25.72157 17.9790849,26.1346378 17.9843137,26.6784314 C17.9895425,27.2222249 17.9869282,27.5830056 17.9764706,27.7607843 C17.9764706,27.8130722 17.9686275,27.9098032 17.9529412,28.0509804 C17.9372548,28.1921576 17.7934654,28.4196063 17.5215686,28.7333333 C17.4274505,28.8169939 17.3333338,28.8823527 17.2392157,28.9294118 C17.1450976,28.9764708 17.0562096,29 16.972549,29 C16.9620915,29 16.9568627,29 16.9568627,29 C16.8627446,29 16.776471,28.9764708 16.6980392,28.9294118 C16.6196075,28.8823527 16.5542486,28.8169939 16.5019608,28.7333333 C16.4915032,28.7124182 16.4130726,28.5869293 16.2666667,28.3568627 C16.1202607,28.1267962 15.9555565,27.8653609 15.772549,27.572549 C15.5895416,27.2797371 15.4143799,26.997387 15.2470588,26.7254902 C15.0797377,26.4535934 14.9594775,26.2601313 14.8862745,26.145098 C14.3111082,25.7999983 13.7359506,25.4444463 13.1607843,25.0784314 C12.585618,24.7124165 12.2718957,24.5084969 12.2196078,24.4666667 C12.1254897,24.3934637 12.0653596,24.3150331 12.0392157,24.2313725 C12.0130718,24.147712 12,24.0745101 12,24.0117647 C12,23.9490193 12.0156861,23.8732031 12.0470588,23.7843137 C12.0784315,23.6954244 12.141176,23.603922 12.2352941,23.5098039 L12.2823529,23.4627451 C12.5856224,23.2117635 12.8078424,23.0732027 12.9490196,23.0470588 C13.0901968,23.0209149 13.1921565,23.0078431 13.254902,23.0078431 C13.2653595,23.0078431 13.2810456,23.0078431 13.3019608,23.0078431 C13.3228759,23.0078431 13.3437907,23.0078431 13.3647059,23.0078431 C13.5529421,23.0078431 13.8431353,23.0104575 14.2352941,23.0156863 C14.6274529,23.0209151 14.9751619,23.0235294 15.2784314,23.0235294 C15.3307192,23.0235294 15.3856206,23.0235294 15.4431373,23.0235294 C15.5006539,23.0235294 15.5503266,23.0235294 15.5921569,23.0235294 L17.5686275,20.9843137 C17.2026125,20.8483653 16.7581725,20.6836611 16.2352941,20.4901961 C15.7124157,20.2967311 15.2052312,20.1084976 14.7137255,19.9254902 C14.2222198,19.7424827 13.7908515,19.5803929 13.4196078,19.4392157 C13.0483642,19.2980385 12.8418303,19.2222223 12.8,19.2117647 C12.6326789,19.1490193 12.5228761,19.06536 12.4705882,18.9607843 C12.4183004,18.8562086 12.3921569,18.7725493 12.3921569,18.7098039 C12.3712417,18.5947707 12.3843135,18.4823535 12.4313725,18.372549 C12.4784316,18.2627445 12.5490191,18.1607848 12.6431373,18.0666667 C12.6431373,18.0666667 12.7869267,17.9333347 13.0745098,17.6666667 C13.3620929,17.3999987 13.5999991,17.1882361 13.7882353,17.0313725 C13.9450988,16.9058817 14.0888882,16.8274511 14.2196078,16.7960784 C14.3503275,16.7647057 14.4575159,16.7490196 14.5411765,16.7490196 C14.5620916,16.7490196 14.5777777,16.7490196 14.5882353,16.7490196 C14.5986929,16.7490196 14.6091503,16.7490196 14.6196078,16.7490196 C14.6509805,16.7490196 14.9333307,16.7647057 15.4666667,16.7960784 C16,16.8274511 16.624833,16.8666664 17.3411765,16.9137255 C18.0575199,16.9607845 18.7921531,17.0104573 19.545098,17.0627451 C20.298043,17.1150329 20.9045729,17.1516339 21.3647059,17.172549 L24.6745098,13.8784314 C24.9986944,13.5542467 25.3333316,13.326798 25.6784314,13.1960784 C26.0235311,13.0653588 26.3424822,13 26.6352941,13 Z" id="" fill="#FFFFFF" fill-rule="nonzero"></path>
            </g>
        </g>
    </g>
</svg>
