<svg width="24" height="16" viewBox="0 0 24 16" fill="none" xmlns="http://www.w3.org/2000/svg">
<path d="M22.2026 16H1.79742C0.804703 16 0 15.1812 0 14.171V1.82896C0 0.818869 0.804703 0 1.79742 0H22.2026C23.1952 0 24 0.818821 24 1.82896V14.1711C24 15.1812 23.1953 16 22.2026 16Z" fill="#FF4B55"/>
<path fill-rule="evenodd" clip-rule="evenodd" d="M9.69405 7.87749C10.1589 8.44679 10.6894 8.6149 11.1618 8.60948C11.4871 8.6058 11.7833 8.51957 12.0134 8.42547C9.68242 10.4421 7.41204 7.6374 8.16711 5.3707C8.1829 5.32339 8.24454 5.32646 8.25528 5.37556C8.31535 5.64957 8.50834 6.1433 9.11414 6.04131C9.72606 5.93825 10.1147 5.9233 10.5465 6.53405C10.7313 6.79534 10.784 7.03744 10.8337 7.26617C10.901 7.57551 10.963 7.86039 11.3392 8.13518C11.4958 8.24957 11.7394 8.26575 11.9332 8.25617C11.4086 8.46509 10.5304 8.61641 9.82183 7.75193C9.79063 7.71386 9.73841 7.70872 9.70309 7.74198L9.70292 7.74212C9.66646 7.77641 9.662 7.83825 9.69405 7.87749ZM9.38431 7.83792C9.39556 7.87914 9.44757 7.88075 9.46081 7.84028L9.5633 7.52754L9.86267 7.53405C9.90143 7.5349 9.91884 7.48047 9.88831 7.45391L9.65236 7.24905L9.75043 6.93471C9.76312 6.894 9.7219 6.85877 9.68976 6.88287L9.4415 7.06891L9.20274 6.86815C9.17184 6.84221 9.12892 6.8749 9.13962 6.91627L9.2221 7.23613L8.97647 7.42636C8.94467 7.45098 8.95936 7.50641 8.99812 7.50792L9.29737 7.51957L9.38431 7.83792Z" fill="#F5F5F5"/>
<path fill-rule="evenodd" clip-rule="evenodd" d="M14.4037 6.71148C13.7244 6.56573 13.2092 6.78469 12.8341 7.10379C12.5758 7.32356 12.3852 7.58997 12.252 7.81842C13.0288 4.65144 16.3595 5.3829 16.9787 7.69988C16.9916 7.74827 16.9406 7.78686 16.9055 7.75474C16.7096 7.57549 16.2886 7.30898 15.8589 7.79431C15.4248 8.28455 15.1219 8.5554 14.4467 8.3545C14.1578 8.26854 13.985 8.10987 13.8217 7.95998C13.6009 7.75727 13.3976 7.5706 12.9482 7.60144C12.7611 7.61422 12.5575 7.76356 12.4075 7.9004C12.7146 7.38365 13.3357 6.67733 14.3692 6.897C14.4147 6.90672 14.4593 6.87606 14.4696 6.82587L14.4697 6.82568C14.4802 6.77398 14.4505 6.72153 14.4037 6.71148ZM14.6729 6.53677C14.6416 6.51129 14.5991 6.54469 14.6104 6.58592L14.6973 6.90441L14.4542 7.0987C14.4227 7.12384 14.4381 7.17898 14.4769 7.17988L14.7763 7.18658L14.8674 7.50346C14.8793 7.54445 14.9313 7.54521 14.944 7.5045L15.0423 7.19021L15.3417 7.19177C15.3804 7.19191 15.3971 7.13724 15.3662 7.1112L15.1276 6.91026L15.2215 6.59431C15.2336 6.55342 15.1919 6.51884 15.1601 6.54346L14.9143 6.73356L14.6729 6.53677Z" fill="#F5F5F5"/>
<path fill-rule="evenodd" clip-rule="evenodd" d="M11.6337 5.5357C11.3368 6.22995 11.3987 6.83896 11.583 7.32235C11.7099 7.65523 11.8944 7.92684 12.0602 8.12726C9.49478 6.49952 10.9653 3.09938 13.1391 3.01273C13.1845 3.01094 13.2054 3.07542 13.1686 3.10514C12.9634 3.27108 12.6259 3.65726 12.9413 4.24094C13.2599 4.83056 13.4202 5.22415 13.0762 5.90033C12.9291 6.18964 12.7476 6.33589 12.5761 6.47406C12.3443 6.66091 12.1308 6.83298 12.0452 7.3241C12.0096 7.52863 12.0888 7.785 12.1705 7.98056C11.7971 7.52099 11.3369 6.67618 11.7869 5.61919C11.8066 5.57269 11.7911 5.51702 11.7499 5.49339L11.7497 5.4933C11.7074 5.46891 11.6542 5.48783 11.6337 5.5357ZM11.5488 5.2024C11.5188 5.22962 11.5372 5.28368 11.576 5.28188L11.8751 5.2682L11.9836 5.57825C11.9977 5.61839 12.0496 5.61556 12.0601 5.5741L12.1408 5.25372L12.4397 5.2349C12.4784 5.23245 12.492 5.17669 12.4598 5.15283L12.2105 4.96853L12.2868 4.64684C12.2967 4.60514 12.2532 4.57349 12.2228 4.60023L11.988 4.80669L11.7362 4.62669C11.7036 4.60339 11.663 4.63962 11.6765 4.68L11.7807 4.99193L11.5488 5.2024Z" fill="#F5F5F5"/>
<path fill-rule="evenodd" clip-rule="evenodd" d="M14.1049 9.95137C14.0162 9.18906 13.6672 8.71434 13.2768 8.41887C13.0079 8.21538 12.7204 8.09812 12.4832 8.02939C15.4332 7.85411 15.8544 11.5973 14.0691 12.9782C14.0318 13.007 13.9828 12.9654 13.9992 12.9183C14.0908 12.6552 14.1863 12.1276 13.6367 11.8267C13.0814 11.5227 12.7548 11.2883 12.7144 10.5129C12.6972 10.1811 12.7784 9.94899 12.8552 9.72968C12.9591 9.43306 13.0547 9.15992 12.8872 8.69557C12.8175 8.50222 12.6259 8.33434 12.4619 8.21911C12.9999 8.38076 13.7985 8.81406 13.9355 9.97335C13.9415 10.0243 13.9817 10.0618 14.0278 10.0569H14.028C14.0755 10.0518 14.1111 10.004 14.1049 9.95137ZM14.3388 10.1805C14.3508 10.1395 14.309 10.1052 14.2772 10.13L14.0325 10.3215L13.7901 10.1261C13.7587 10.1008 13.7164 10.1344 13.7279 10.1756L13.8162 10.4935L13.574 10.6893C13.5427 10.7146 13.5583 10.7697 13.5971 10.7703L13.8965 10.7753L13.9892 11.0917C14.0012 11.1326 14.0533 11.133 14.0658 11.0923L14.1625 10.7774L14.462 10.7772C14.5007 10.7772 14.5171 10.7223 14.4861 10.6965L14.2465 10.4969L14.3388 10.1805Z" fill="#F5F5F5"/>
<path fill-rule="evenodd" clip-rule="evenodd" d="M11.2383 10.7025C11.8648 10.3766 12.1656 9.86283 12.3001 9.35962C12.3928 9.01307 12.4059 8.67316 12.3926 8.40137C13.4405 11.4704 10.3595 13.055 8.63234 11.5857C8.5963 11.555 8.61714 11.4905 8.66248 11.4935C8.9158 11.5104 9.39734 11.4509 9.48802 10.7776C9.57968 10.0975 9.68127 9.68042 10.3338 9.40174C10.6129 9.28249 10.8367 9.29789 11.0481 9.31243C11.334 9.33209 11.5973 9.3502 11.9444 9.03165C12.0889 8.89896 12.1746 8.64519 12.2234 8.43651C12.2486 9.05514 12.1201 10.0322 11.1679 10.5299C11.126 10.5518 11.1062 10.6058 11.1244 10.6531L11.1245 10.6533C11.1432 10.702 11.1951 10.725 11.2383 10.7025ZM11.113 11.0197C11.1517 11.02 11.1684 10.9652 11.1375 10.9392L10.8989 10.7383L10.9926 10.4223C11.0047 10.3814 10.963 10.3468 10.9312 10.3715L10.6855 10.5617L10.4441 10.365C10.4128 10.3395 10.3704 10.3729 10.3816 10.4141L10.4685 10.7325L10.2255 10.9269C10.194 10.9521 10.2095 11.0072 10.2482 11.0081L10.5476 11.0147L10.6389 11.3316C10.6507 11.3725 10.7028 11.3733 10.7155 11.3326L10.8136 11.0183L11.113 11.0197Z" fill="#F5F5F5"/>
</svg>
