<svg width="54" height="26" viewBox="0 0 54 26" fill="none" xmlns="http://www.w3.org/2000/svg">
<path d="M41.7533 19.4518C43.7765 19.4518 45.4167 17.8116 45.4167 15.7884C45.4167 13.7652 43.7765 12.125 41.7533 12.125C39.73 12.125 38.0898 13.7652 38.0898 15.7884C38.0898 17.8116 39.73 19.4518 41.7533 19.4518Z" fill="#F53500"/>
<path d="M48.6196 13.4199H46.7168V14.4357H48.6196V13.4199Z" fill="white"/>
<path d="M30.7933 20.8996C26.0092 20.8996 22.5083 20.1005 19.1225 19.332C16.915 18.8309 14.8293 18.3535 12.5169 18.1368C12.3577 18.1368 12.2054 18.1368 12.0598 18.1334C11.2032 18.1266 10.587 18.1199 9.52044 18.367L8.89746 18.5126V13.434L9.51367 13.566C10.7122 13.8267 11.5282 13.6744 12.3916 13.5118C13.3261 13.3358 14.4637 12.943 15.906 12.4419C20.2059 10.9522 26.7032 8.69727 37.6156 8.69727C52.4791 8.69727 53.4034 18.1165 53.4102 18.2147L53.4475 18.6887L52.9802 18.7598C52.838 18.7801 38.6076 20.8996 30.7933 20.8996ZM11.6535 17.1143C11.7889 17.1143 11.9277 17.1143 12.0665 17.1177C12.2155 17.1177 12.3713 17.1211 12.5372 17.1211L12.5846 17.1245C14.9715 17.3479 17.0978 17.8321 19.346 18.3433C22.6776 19.1017 26.1243 19.8872 30.7933 19.8872C37.7002 19.8872 49.7197 18.2045 52.3234 17.8287C51.9476 16.0173 49.7604 9.71638 37.6156 9.71638C26.8759 9.71638 20.4768 11.9341 16.2412 13.4035C14.7582 13.9181 13.5868 14.3244 12.5812 14.5106C11.7991 14.6562 10.9933 14.8052 9.91658 14.6664V17.2497C10.5802 17.1346 11.0982 17.1143 11.6535 17.1143Z" fill="white"/>
<path d="M30.712 9.6523H29.6963V0.764648L30.4073 1.07614C33.8879 2.59635 36.6134 5.51827 37.8831 9.09026L36.9249 9.42884C35.8347 6.36472 33.5933 3.81862 30.712 2.34242V9.6523Z" fill="white"/>
<path d="M18.7737 12.3404L16.8506 10.1701L22.6877 4.44141L27.0214 9.50314L26.2495 10.1634L22.6233 5.92776L18.2523 10.2209L19.5321 11.6666L18.7737 12.3404Z" fill="white"/>
<path d="M0 21.4898L2.77972 16.0624L0.0169289 10.6621L9.55127 13.5773L9.25332 14.549L2.01453 12.3347L3.92073 16.0624L2.02808 19.7563L9.24655 17.3896L9.56142 18.358L0 21.4898Z" fill="white"/>
<path d="M43.9944 19.5151L41.7158 17.2398V12.4388L43.016 11.1387L43.7337 11.8565L42.7316 12.8586V16.8166L44.7122 18.7973L43.9944 19.5151Z" fill="white"/>
<path d="M32.9975 17.934L28.0576 12.4795L39.7182 14.7175L39.5286 15.7163L30.8475 14.0505L33.7491 17.2534L32.9975 17.934Z" fill="white"/>
<path d="M53.3357 21.5907L52.3369 21.4078C52.513 20.4497 52.5367 19.2951 52.4012 18.3234L53.4068 18.1846C53.5558 19.2748 53.5321 20.5174 53.3357 21.5907Z" fill="white"/>
<path d="M34.1392 20.0809L30.7539 24.3965L31.5531 25.0234L34.9384 20.7078L34.1392 20.0809Z" fill="white"/>
<path d="M23.3843 19.538L19.999 23.8535L20.7982 24.4804L24.1835 20.1649L23.3843 19.538Z" fill="white"/>
</svg>
