<svg width="59" height="22" viewBox="0 0 59 22" fill="none" xmlns="http://www.w3.org/2000/svg">
<path d="M46.2747 14.2926C48.298 14.2926 49.9381 12.6525 49.9381 10.6292C49.9381 8.60598 48.298 6.96582 46.2747 6.96582C44.2515 6.96582 42.6113 8.60598 42.6113 10.6292C42.6113 12.6525 44.2515 14.2926 46.2747 14.2926Z" fill="#F53500"/>
<path d="M52.9048 10.0068H51.002V11.0226H52.9048V10.0068Z" fill="white"/>
<path d="M0.0898438 19.0567L3.06932 11.8721L0.0898438 4.6875L9.20773 11.8721L0.0898438 19.0567ZM2.51744 7.89722L4.16632 11.8721L2.51744 15.847L7.56225 11.8721L2.51744 7.89722Z" fill="white"/>
<path d="M39.3074 16.4398C25.3344 16.4398 11.8488 13.4874 8.0466 12.58L7.67755 12.492L7.60645 11.2121L7.96195 11.0835C11.7709 9.72241 25.1583 5.28027 37.5265 5.28027C51.2694 5.28027 55.6878 9.42446 57.3536 10.9853C57.445 11.0699 57.5263 11.1478 57.6008 11.2121L58.024 11.5947L57.594 11.9706C55.9316 13.4298 49.2684 16.4398 39.3074 16.4398ZM9.06233 11.7742C13.6636 12.8305 26.2756 15.4207 39.3041 15.4207C48.2256 15.4207 54.3403 13.0066 56.4699 11.5507C50.6599 6.29601 41.1358 6.29601 37.5265 6.29601C26.0386 6.29601 13.623 10.193 9.06233 11.7742Z" fill="white"/>
<path d="M17.6144 8.99316H16.5986V10.6251H17.6144V8.99316Z" fill="white"/>
<path d="M20.296 8.48047H19.2803V10.6304H20.296V8.48047Z" fill="white"/>
<path d="M22.9776 7.53809H21.9619V10.6293H22.9776V7.53809Z" fill="white"/>
<path d="M25.6593 7.01367H24.6436V10.6297H25.6593V7.01367Z" fill="white"/>
<path d="M28.3409 6.56934H27.3252V10.6289H28.3409V6.56934Z" fill="white"/>
<path d="M31.0226 6.29199H30.0068V10.6292H31.0226V6.29199Z" fill="white"/>
<path d="M33.7042 6.33691H32.6885V10.6301H33.7042V6.33691Z" fill="white"/>
<path d="M36.3849 5.96777H35.3691V10.63H36.3849V5.96777Z" fill="white"/>
<path d="M39.0665 6.03516H38.0508V10.6263H39.0665V6.03516Z" fill="white"/>
<path d="M41.7482 5.96777H40.7324V10.63H41.7482V5.96777Z" fill="white"/>
<path d="M30.1826 6.60709L29.4648 5.88931L34.943 0.411133L39.9607 5.42885L39.243 6.14663L34.943 1.8467L30.1826 6.60709Z" fill="white"/>
<path d="M41.7791 15.5373L36.5576 20.7588L37.2758 21.477L42.4973 16.2555L41.7791 15.5373Z" fill="white"/>
<path d="M19.3078 19.2696L12.6006 16.4289L15.4582 13.2666L16.2098 13.9471L14.3138 16.0497L19.0505 18.0575L22.46 14.411L23.2048 15.1017L19.3078 19.2696Z" fill="white"/>
<path d="M48.537 15.5115C46.6613 15.5115 45.1377 13.9879 45.1377 12.1122C45.1377 10.2365 46.6613 8.71289 48.537 8.71289V9.72862C47.2233 9.72862 46.1534 10.7985 46.1534 12.1122C46.1534 13.4259 47.2233 14.4958 48.537 14.4958V15.5115Z" fill="white"/>
</svg>
