<svg width="47" height="20" viewBox="0 0 47 20" fill="none" xmlns="http://www.w3.org/2000/svg">
<path d="M33.6556 12.8307C35.6788 12.8307 37.319 11.1906 37.319 9.16731C37.319 7.14407 35.6788 5.50391 33.6556 5.50391C31.6324 5.50391 29.9922 7.14407 29.9922 9.16731C29.9922 11.1906 31.6324 12.8307 33.6556 12.8307Z" fill="#F53500"/>
<path d="M40.6577 10.5068H38.8633V11.5226H40.6577V10.5068Z" fill="white"/>
<path d="M14.0456 10.0474L12.7793 6.57358L13.2127 6.38059C14.1268 5.9743 15.1595 5.39533 16.2531 4.7825C19.4459 2.99482 24.2638 0.292969 30.9135 0.292969H31.2656L32.5928 3.82433L31.6414 4.18322L30.5614 1.31209C24.3553 1.40689 19.7912 3.96315 16.7508 5.66619C15.7994 6.20114 14.8954 6.70562 14.0557 7.10853L15.0004 9.69865L14.0456 10.0474Z" fill="white"/>
<path d="M31.5766 19.3205C25.357 19.3205 20.6169 17.526 16.8079 16.0871C14.4582 15.2 12.6028 14.4958 11.113 14.4958C7.2397 14.4958 1.92741 17.7698 1.87324 17.8037L0.694996 18.535L2.77048 12.1088L0.610352 5.4896L1.91387 6.49517C1.96127 6.53242 6.71152 10.1518 11.3466 10.1518C13.2359 10.1518 15.2911 9.02435 17.6679 7.72083C21.1146 5.82818 25.4078 3.47168 31.211 3.47168C41.1008 3.47168 46.4605 13.6561 46.5147 13.7577L46.6772 14.0725L46.4368 14.3332C46.2506 14.5364 41.7103 19.3205 31.5766 19.3205ZM11.113 13.48C12.789 13.48 14.7189 14.2114 17.1668 15.1357C20.8979 16.5475 25.5432 18.3048 31.5766 18.3048C36.6248 18.3048 40.1968 17.0385 42.2994 15.972C43.9482 15.1391 44.9809 14.2994 45.4312 13.8931C44.4426 12.1968 39.5027 4.48403 31.2144 4.48403C25.6718 4.48403 21.5073 6.76942 18.1588 8.6079C15.6601 9.97914 13.5 11.1642 11.35 11.1642C7.81865 11.1642 4.35163 9.30537 2.55717 8.16436L3.84376 12.1054L2.49623 16.2733C4.34486 15.2643 8.05906 13.48 11.113 13.48Z" fill="white"/>
<path d="M8.68565 10.3076H7.66992V14.3164H8.68565V10.3076Z" fill="white"/>
<path d="M37.7424 18.7084C34.6376 18.7084 32.1152 16.1826 32.1152 13.0813C32.1152 9.97989 34.641 7.4541 37.7424 7.4541V8.46983C35.1997 8.46983 33.131 10.5385 33.131 13.0813C33.131 15.624 35.1997 17.6927 37.7424 17.6927V18.7084Z" fill="white"/>
<path d="M27.1953 16.2432L25.2451 11.4219L32.6464 11.8079L32.5956 12.8202L26.7856 12.5189L28.1366 15.864L27.1953 16.2432Z" fill="white"/>
</svg>
