<svg width="63" height="28" viewBox="0 0 63 28" fill="none" xmlns="http://www.w3.org/2000/svg">
<path d="M56.9893 14.2734H55.1406V15.2892H56.9893V14.2734Z" fill="white"/>
<path d="M38.8714 18.9508C40.8947 18.9508 42.5348 17.3107 42.5348 15.2874C42.5348 13.2642 40.8947 11.624 38.8714 11.624C36.8482 11.624 35.208 13.2642 35.208 15.2874C35.208 17.3107 36.8482 18.9508 38.8714 18.9508Z" fill="#F53500"/>
<path d="M4.69225 24.4927L3.10095 24.0254L5.47438 17.2099L0.263672 7.98027L1.54689 6.84942L10.4684 14.9414L32.7603 9.1856V0L40.9268 7.70263C50.0684 8.14278 57.0634 10.6957 62.3046 15.5035L62.8395 15.9944L62.1996 16.3296C61.9423 16.465 55.7903 19.6239 44.9965 20.6363L44.9017 19.6239C53.4846 18.8181 59.1761 16.5801 61.0519 15.7438C56.0206 11.3999 49.3506 9.09419 40.6965 8.70482L40.507 8.69805L33.776 2.34973V9.9711L10.1907 16.0587L1.58752 8.25451L6.58488 17.1083L4.41124 23.3449L10.333 17.5959L10.5869 17.6399C10.7189 17.6636 23.8354 19.9253 38.4315 19.9253C38.5432 19.9253 38.5872 19.9253 38.6042 19.9253C38.6719 19.9185 38.743 19.9185 38.8209 19.9151L38.831 20.555L39.0545 20.7142C38.9901 20.809 38.919 20.8665 38.8378 20.897V20.9308C38.743 20.9308 38.699 20.9342 38.682 20.9342V20.9308C38.6075 20.9376 38.5229 20.9376 38.4315 20.9376C24.8748 20.9376 12.5811 18.9976 10.6681 18.6827L4.69225 24.4927Z" fill="white"/>
<path d="M38.3643 27.5192V18.1508H39.38V25.0679L46.7711 17.6768L47.4889 18.3945L38.3643 27.5192Z" fill="white"/>
<path d="M46.4181 12.8896H45.4023V16.0757H46.4181V12.8896Z" fill="white"/>
<path d="M48.3927 12.8896H47.377V16.0757H48.3927V12.8896Z" fill="white"/>
<path d="M50.3692 12.8896H49.3535V16.0757H50.3692V12.8896Z" fill="white"/>
</svg>
