<svg width="50" height="28" viewBox="0 0 50 28" fill="none" xmlns="http://www.w3.org/2000/svg">
<path d="M34.6663 17.5562C36.4932 17.5562 37.9742 16.0752 37.9742 14.2483C37.9742 12.4214 36.4932 10.9404 34.6663 10.9404C32.8394 10.9404 31.3584 12.4214 31.3584 14.2483C31.3584 16.0752 32.8394 17.5562 34.6663 17.5562Z" fill="#F53500"/>
<path d="M43.936 12.3057H42.0332V13.3214H43.936V12.3057Z" fill="white"/>
<path d="M45.5649 14.3799H43.6621V15.3956H45.5649V14.3799Z" fill="white"/>
<path d="M40.9095 17.9128C38.807 17.9128 37.0938 16.2707 37.0938 14.2493C37.0938 12.228 38.8036 10.5859 40.9095 10.5859V11.6017C39.3656 11.6017 38.1095 12.7901 38.1095 14.2493C38.1095 15.7086 39.3656 16.897 40.9095 16.897V17.9128Z" fill="white"/>
<path d="M27.8505 24.4496C15.0726 24.4496 7.43093 17.5528 5.98859 16.1274L1.50922 17.8914L1.28238 17.546C1.24852 17.4919 0.425781 16.2087 0.425781 14.2517C0.425781 12.2947 1.24852 11.0081 1.28238 10.9573L1.50922 10.612L5.98859 12.3759C7.43093 10.9505 15.0726 4.05371 27.8505 4.05371C42.0538 4.05371 49.6888 13.8488 49.7667 13.9469L50.0003 14.255L49.7667 14.5632C49.6888 14.6546 42.0538 24.4496 27.8505 24.4496ZM6.25608 14.9288L6.49309 15.1895C6.56758 15.2708 14.1449 23.4339 27.8505 23.4339C40.1172 23.4339 47.295 15.8802 48.7035 14.2483C47.295 12.6163 40.1206 5.06269 27.8505 5.06269C14.1415 5.06269 6.56758 13.2258 6.49309 13.307L6.25608 13.5677L1.94598 11.8715C1.73945 12.3218 1.4415 13.1648 1.4415 14.2517C1.4415 15.3351 1.74283 16.1782 1.94598 16.6319L6.25608 14.9288Z" fill="white"/>
<path d="M12.3643 8.95014L11.4941 8.42874C14.2502 3.8444 20.1245 0.881836 26.4559 0.881836C32.0492 0.881836 37.2294 3.12322 40.3172 6.87466L39.5317 7.52135C36.6335 4.00015 31.7444 1.90096 26.4559 1.90096C20.4732 1.89419 14.9409 4.66375 12.3643 8.95014Z" fill="white"/>
<path d="M26.4559 27.6166C20.1245 27.6166 14.4296 24.7895 11.5957 20.2356L12.4591 19.6973C15.1102 23.9566 20.4732 26.6009 26.4593 26.6009C31.8562 26.6009 36.796 24.434 39.6773 20.8078L40.473 21.4409C37.3987 25.3075 32.1609 27.6166 26.4559 27.6166Z" fill="white"/>
</svg>
