<svg width="23" height="25" viewBox="0 0 23 25" fill="none" xmlns="http://www.w3.org/2000/svg">
<path fill-rule="evenodd" clip-rule="evenodd" d="M19.573 16.3671H6.36068C5.85308 16.3671 5.37505 16.2263 4.97095 15.9848V17.826C4.97095 18.6058 5.59189 19.2447 6.36068 19.2447H18.9274C20.4059 19.2447 21.6132 20.4773 21.6132 21.9865C21.6132 23.4958 20.4059 24.7283 18.9274 24.7283C17.449 24.7283 16.2416 23.5008 16.2416 21.9865C16.2416 21.4834 16.3746 21.0105 16.6112 20.603H10.6284C10.865 21.0055 10.998 21.4834 10.998 21.9865C10.998 23.4958 9.79066 24.7283 8.31222 24.7283C6.83378 24.7283 5.62639 23.5008 5.62639 21.9865C5.62639 21.4734 5.7693 20.9904 6.01078 20.5779C4.67526 20.4018 3.64035 19.2347 3.64035 17.826V13.6002V10.2547V6.51178V6.02379V2.94494L0.417352 1.55644C0.077311 1.41054 -0.0803892 1.01311 0.0625266 0.665984C0.205442 0.318859 0.594765 0.157873 0.934806 0.303767L4.56684 1.86331C4.57669 1.86835 4.58778 1.87338 4.59887 1.87841C4.60996 1.88344 4.62105 1.88847 4.6309 1.8935C4.63337 1.89602 4.63583 1.89727 4.6383 1.89853C4.64076 1.89979 4.64322 1.90105 4.64569 1.90356C4.65555 1.90859 4.67033 1.91865 4.68511 1.92872C4.69004 1.93375 4.69497 1.93752 4.6999 1.94129C4.70483 1.94507 4.70975 1.94884 4.71468 1.95387C4.71715 1.95638 4.72084 1.9589 4.72454 1.96142C4.72824 1.96393 4.73193 1.96645 4.7344 1.96896C4.74918 1.97902 4.75904 1.98909 4.76889 1.99915L4.78368 2.01424L4.81325 2.04442L4.82803 2.05952C4.83049 2.06455 4.83419 2.06958 4.83789 2.07461C4.84158 2.07964 4.84528 2.08467 4.84774 2.0897C4.85021 2.09473 4.85267 2.09851 4.85513 2.10228C4.8576 2.10605 4.86006 2.10982 4.86253 2.11486C4.86499 2.11989 4.86745 2.12366 4.86992 2.12743C4.87238 2.13121 4.87485 2.13498 4.87731 2.14001C4.88717 2.15007 4.8921 2.16013 4.89702 2.17019C4.89949 2.17271 4.90072 2.17648 4.90195 2.18026C4.90318 2.18403 4.90442 2.1878 4.90688 2.19032C4.91674 2.20541 4.92166 2.21547 4.92659 2.23056C4.92659 2.23308 4.92782 2.23685 4.92906 2.24063C4.93029 2.2444 4.93152 2.24817 4.93152 2.25069L4.9463 2.29596C4.9463 2.30099 4.94754 2.30477 4.94877 2.30854C4.95 2.31231 4.95123 2.31609 4.95123 2.32112C4.9537 2.32866 4.95493 2.33495 4.95616 2.34124C4.95739 2.34753 4.95862 2.35382 4.96109 2.36136C4.96109 2.36891 4.96232 2.37646 4.96355 2.384C4.96479 2.39155 4.96602 2.3991 4.96602 2.40664C4.97095 2.4167 4.97095 2.42173 4.97095 2.42676C4.97587 2.44689 4.97587 2.47204 4.97587 2.4972V4.8818L21.7217 7.24124C21.7274 7.24124 21.7315 7.24297 21.7349 7.2444C21.7373 7.24541 21.7393 7.24627 21.7414 7.24627C21.7562 7.24627 21.766 7.24627 21.7808 7.2513C21.7828 7.2513 21.7857 7.25217 21.7891 7.25318C21.7939 7.25461 21.7997 7.25633 21.8054 7.25633C21.8153 7.25633 21.8301 7.26136 21.8399 7.2664C21.8449 7.26891 21.8498 7.27017 21.8547 7.27143C21.8597 7.27268 21.8646 7.27394 21.8695 7.27646L21.8991 7.29155L21.9286 7.30664L21.9582 7.32173C21.9681 7.3318 21.9779 7.33683 21.9878 7.34186C21.9909 7.34346 21.9935 7.34505 21.996 7.34665C21.9974 7.34757 21.9987 7.34848 22.0001 7.34939L22.0001 7.3494C22.0038 7.35192 22.0075 7.35443 22.0124 7.35695C22.0174 7.35947 22.0223 7.36324 22.0272 7.36701C22.0321 7.37078 22.0371 7.37456 22.042 7.37707C22.0469 7.37959 22.0506 7.38336 22.0543 7.38713C22.058 7.39091 22.0617 7.39468 22.0666 7.3972L22.0913 7.42235C22.0921 7.42322 22.0931 7.42409 22.0942 7.42499C22.095 7.42566 22.0959 7.42635 22.0968 7.42706C22.1017 7.43089 22.1075 7.43546 22.111 7.44247C22.1135 7.4475 22.1171 7.45128 22.1208 7.45505C22.1245 7.45882 22.1282 7.4626 22.1307 7.46763C22.1332 7.47266 22.1369 7.47643 22.1406 7.4802C22.1443 7.48398 22.1479 7.48775 22.1504 7.49278C22.1603 7.50284 22.1652 7.50787 22.1701 7.51794C22.1726 7.52297 22.1763 7.528 22.18 7.53303C22.1837 7.53806 22.1874 7.54309 22.1898 7.54812C22.1923 7.55315 22.1948 7.55692 22.1972 7.5607C22.1997 7.56447 22.2022 7.56824 22.2046 7.57327L22.2194 7.60346C22.2243 7.60849 22.2293 7.61854 22.2342 7.62859L22.2342 7.62861C22.2391 7.64371 22.244 7.65377 22.249 7.66383C22.2514 7.66886 22.2527 7.67389 22.2539 7.67892C22.2551 7.68395 22.2564 7.68898 22.2588 7.69401C22.2613 7.69904 22.2625 7.70407 22.2638 7.70911C22.265 7.71414 22.2662 7.71917 22.2687 7.7242C22.2693 7.72619 22.2699 7.72809 22.2704 7.72992C22.2716 7.73417 22.2724 7.738 22.2732 7.74157L22.2732 7.74159C22.2746 7.74812 22.2758 7.75377 22.2785 7.75941C22.2785 7.76444 22.2798 7.76947 22.281 7.77451C22.2814 7.77622 22.2818 7.77793 22.2822 7.77964C22.2824 7.78047 22.2826 7.7813 22.2827 7.78214C22.2832 7.78462 22.2835 7.78711 22.2835 7.7896C22.2835 7.79463 22.2847 7.80092 22.2859 7.80721C22.2872 7.8135 22.2884 7.81978 22.2884 7.82481C22.2933 7.83488 22.2933 7.84494 22.2933 7.855V7.89525V7.91537V13.5901C22.2933 15.1195 21.0711 16.3671 19.573 16.3671ZM8.31715 23.3658C9.0613 23.3658 9.67239 22.747 9.67239 21.9823C9.67239 21.2177 9.0613 20.5989 8.31715 20.5989C7.573 20.5989 6.96191 21.2227 6.96191 21.9823C6.96191 22.742 7.573 23.3658 8.31715 23.3658ZM20.2876 21.9823C20.2876 22.747 19.6765 23.3658 18.9323 23.3658C18.1882 23.3658 17.5771 22.742 17.5771 21.9823C17.5771 21.2227 18.1882 20.5989 18.9323 20.5989C19.6765 20.5989 20.2876 21.2177 20.2876 21.9823ZM6.36068 15.008H19.573C20.3369 15.008 20.9627 14.3741 20.9627 13.5843V8.49816L4.97095 6.24939V6.50093V10.2438V13.5893C4.97095 14.3691 5.59189 15.008 6.36068 15.008Z" fill="white"/>
</svg>
