<svg width="16" height="16" viewBox="0 0 16 16" fill="none" xmlns="http://www.w3.org/2000/svg">
<circle cx="8" cy="8" r="7.5" stroke="white"/>
<path d="M7.41602 12V6H8.58398V12H7.41602ZM8.00586 5.07422C7.80273 5.07422 7.62826 5.00651 7.48242 4.87109C7.33919 4.73307 7.26758 4.56901 7.26758 4.37891C7.26758 4.1862 7.33919 4.02214 7.48242 3.88672C7.62826 3.7487 7.80273 3.67969 8.00586 3.67969C8.20898 3.67969 8.38216 3.7487 8.52539 3.88672C8.67122 4.02214 8.74414 4.1862 8.74414 4.37891C8.74414 4.56901 8.67122 4.73307 8.52539 4.87109C8.38216 5.00651 8.20898 5.07422 8.00586 5.07422Z" fill="white"/>
</svg>
