<svg width="24" height="18" viewBox="0 0 24 18" fill="none" xmlns="http://www.w3.org/2000/svg">
<circle cx="6.5" cy="6.5" r="2.5" stroke="white"/>
<path d="M6.5 16.5L6.16366 16.87C6.35437 17.0433 6.64563 17.0433 6.83634 16.87L6.5 16.5ZM6.5 16.5C6.83634 16.13 6.83641 16.1301 6.83645 16.1301C6.83644 16.1301 6.83647 16.1302 6.83645 16.1301C6.8364 16.1301 6.83627 16.13 6.83606 16.1298C6.83563 16.1294 6.83488 16.1287 6.8338 16.1277C6.83165 16.1257 6.8282 16.1226 6.8235 16.1182C6.81409 16.1095 6.79967 16.0961 6.78057 16.0782C6.74237 16.0423 6.68547 15.9882 6.61254 15.9172C6.46666 15.7751 6.25684 15.5653 6.00442 15.2976C5.49905 14.7616 4.82564 13.9963 4.1532 13.0793C2.79435 11.2263 1.5 8.83523 1.5 6.5H0.5C0.5 9.16477 1.95565 11.7737 3.3468 13.6707C4.04936 14.6287 4.75095 15.4259 5.27683 15.9836C5.54003 16.2628 5.75991 16.4827 5.9148 16.6336C5.99227 16.709 6.05353 16.7673 6.09589 16.8071C6.11708 16.827 6.13354 16.8422 6.14495 16.8528C6.15065 16.8581 6.15509 16.8621 6.15822 16.865C6.15979 16.8664 6.16103 16.8676 6.16194 16.8684C6.16239 16.8688 6.16276 16.8692 6.16305 16.8694C6.1632 16.8695 6.16335 16.8697 6.16342 16.8697C6.16355 16.8699 6.16366 16.87 6.5 16.5ZM1.5 6.5C1.5 4.66714 2.29326 3.43312 3.30697 2.64468C4.33939 1.84169 5.60493 1.5 6.5 1.5V0.5C5.39507 0.5 3.91061 0.908314 2.69303 1.85532C1.45674 2.81688 0.5 4.33286 0.5 6.5H1.5ZM6.5 1.5C7.39507 1.5 8.66061 1.84169 9.69303 2.64468C10.7067 3.43312 11.5 4.66714 11.5 6.5H12.5C12.5 4.33286 11.5433 2.81688 10.307 1.85532C9.08939 0.908314 7.60493 0.5 6.5 0.5V1.5ZM11.5 6.5C11.5 8.83523 10.2056 11.2263 8.8468 13.0793C8.17436 13.9963 7.50095 14.7616 6.99558 15.2976C6.74316 15.5653 6.53334 15.7751 6.38746 15.9172C6.31453 15.9882 6.25763 16.0423 6.21943 16.0782C6.20033 16.0961 6.18591 16.1095 6.1765 16.1182C6.1718 16.1226 6.16835 16.1257 6.1662 16.1277C6.16512 16.1287 6.16437 16.1294 6.16394 16.1298C6.16373 16.13 6.1636 16.1301 6.16355 16.1301C6.16353 16.1302 6.16356 16.1301 6.16355 16.1301C6.16359 16.1301 6.16366 16.13 6.5 16.5C6.83634 16.87 6.83645 16.8699 6.83658 16.8697C6.83665 16.8697 6.8368 16.8695 6.83695 16.8694C6.83724 16.8692 6.83761 16.8688 6.83806 16.8684C6.83897 16.8676 6.84021 16.8664 6.84178 16.865C6.84491 16.8621 6.84935 16.8581 6.85505 16.8528C6.86646 16.8422 6.88292 16.827 6.90411 16.8071C6.94647 16.7673 7.00773 16.709 7.0852 16.6336C7.24009 16.4827 7.45997 16.2628 7.72317 15.9836C8.24905 15.4259 8.95064 14.6287 9.6532 13.6707C11.0444 11.7737 12.5 9.16477 12.5 6.5H11.5Z" fill="white"/>
</svg>
