<svg width="24" height="19" viewBox="0 0 24 19" fill="none" xmlns="http://www.w3.org/2000/svg">
<path fill-rule="evenodd" clip-rule="evenodd" d="M0.288288 1.72414C0.192192 1.61686 0.12012 1.50575 0.0720721 1.3908C0.0240238 1.27586 0 1.14176 0 0.988506C0 0.850574 0.0240238 0.720307 0.0720721 0.597701C0.12012 0.475095 0.192192 0.367817 0.288288 0.275862C0.384385 0.183908 0.496496 0.114943 0.624625 0.0689655C0.752753 0.0229883 0.888888 0 1.03303 0H22.967C23.1111 0 23.2472 0.0229883 23.3754 0.0689655C23.5035 0.114943 23.6156 0.183908 23.7117 0.275862C23.8078 0.367817 23.8799 0.475095 23.9279 0.597701C23.976 0.720307 24 0.850574 24 0.988506C24 1.14176 23.976 1.27586 23.9279 1.3908C23.8799 1.50575 23.8078 1.61686 23.7117 1.72414C23.6156 1.81609 23.5035 1.88506 23.3754 1.93103C23.2472 1.97701 23.1111 2 22.967 2H1.03303C0.888888 2 0.752753 1.97701 0.624625 1.93103C0.496496 1.88506 0.384385 1.81609 0.288288 1.72414ZM23.7117 8.77907C23.8078 8.87209 23.8799 8.98062 23.9279 9.10465C23.976 9.22868 24 9.36046 24 9.5C24 9.63954 23.976 9.77132 23.9279 9.89535C23.8799 10.0194 23.8078 10.1279 23.7117 10.2209C23.6156 10.314 23.5035 10.3837 23.3754 10.4302C23.2472 10.4767 23.1111 10.5 22.967 10.5H1.03303C0.888888 10.5 0.752753 10.4767 0.624625 10.4302C0.496496 10.3837 0.384385 10.314 0.288288 10.2209C0.192192 10.1279 0.12012 10.0194 0.0720721 9.89535C0.0240238 9.77132 0 9.63954 0 9.5C0 9.36046 0.0240238 9.22868 0.0720721 9.10465C0.12012 8.98062 0.192192 8.87209 0.288288 8.77907C0.384385 8.68605 0.496496 8.61628 0.624625 8.56977C0.752753 8.52326 0.888888 8.5 1.03303 8.5H22.967C23.1111 8.5 23.2472 8.52326 23.3754 8.56977C23.5035 8.61628 23.6156 8.68605 23.7117 8.77907ZM23.9279 17.5977C23.8799 17.4751 23.8078 17.3678 23.7117 17.2759C23.6156 17.1839 23.5035 17.1149 23.3754 17.069C23.2472 17.023 23.1111 17 22.967 17H1.03303C0.888888 17 0.752753 17.023 0.624625 17.069C0.496496 17.1149 0.384385 17.1839 0.288288 17.2759C0.192192 17.3678 0.12012 17.4751 0.0720721 17.5977C0.0240238 17.7203 0 17.8506 0 17.9885C0 18.1418 0.0240238 18.2759 0.0720721 18.3908C0.12012 18.5057 0.192192 18.6169 0.288288 18.7241C0.384385 18.8161 0.496496 18.8851 0.624625 18.931C0.752753 18.977 0.888888 19 1.03303 19H22.967C23.1111 19 23.2472 18.977 23.3754 18.931C23.5035 18.8851 23.6156 18.8161 23.7117 18.7241C23.8078 18.6169 23.8799 18.5057 23.9279 18.3908C23.976 18.2759 24 18.1418 24 17.9885C24 17.8506 23.976 17.7203 23.9279 17.5977Z" fill="white"/>
</svg>
