<svg width="24" height="20" viewBox="0 0 24 20" fill="none" xmlns="http://www.w3.org/2000/svg">
<path d="M21.2406 13.5226L22.8057 12.5949L21.2406 13.5226ZM21.2406 13.5226L22.7442 14.1421C22.7442 14.1421 22.7442 14.1421 22.7443 14.1421L22.7443 14.1421L22.7291 14.1791C22.8178 14.2153 22.8922 14.28 22.9406 14.3632L22.9751 14.3431C23.1071 14.5699 23.0314 14.8616 22.8057 14.9945L16.0871 18.9735C15.9576 19.0507 15.7994 19.0613 15.6608 19.0021L15.6608 19.0021L10.0257 16.5894L10.0257 16.5894L6.96106 15.2805L6.95918 15.2797L6.9592 15.2796C6.93573 15.2681 6.9132 15.2547 6.89191 15.2394L1.29126 12.8459L1.2912 12.8459C1.19558 12.8048 1.11618 12.7333 1.06502 12.6424L1.06502 12.6424C0.936396 12.4136 1.01627 12.123 1.24383 11.9934L1.24398 11.9933L2.81961 11.1043L1.28432 10.4688C1.15543 10.4257 1.05118 10.3291 0.99798 10.2034C0.895906 9.96234 1.00658 9.68341 1.24583 9.5795L2.81982 8.69148L1.28292 8.05108L1.28253 8.05092C1.18691 8.00986 1.10751 7.93836 1.05636 7.84741L1.05635 7.84741C0.927727 7.61864 1.0076 7.32805 1.23516 7.19842L1.23539 7.1983L2.8196 6.30918L1.28356 5.66914C1.17209 5.62705 1.08047 5.54424 1.027 5.43732C1.027 5.43731 1.027 5.43731 1.027 5.43731L21.2406 13.5226ZM21.2406 8.72324L22.7442 9.34274C22.7442 9.34275 22.7442 9.34276 22.7443 9.34278L22.7443 9.3428L22.7291 9.37978C22.8178 9.41594 22.8922 9.48068 22.9406 9.56385L22.9751 9.54374C23.1071 9.77061 23.0314 10.0623 22.8057 10.1952L21.2406 11.1229L22.7442 11.7424C22.7442 11.7424 22.7442 11.7424 22.7443 11.7424L22.7443 11.7425L22.7291 11.7794L21.2406 8.72324ZM21.2406 8.72324L22.8058 7.79552L22.8062 7.79532C22.962 7.70095 23.0502 7.52524 23.0334 7.34325M21.2406 8.72324L1.23604 4.79827L7.91505 1.02033L7.91518 1.02026C8.04164 0.949377 8.19341 0.940526 8.32715 0.996371C8.32719 0.99639 8.32724 0.996409 8.32728 0.996428L13.305 3.03536C13.3606 3.03674 13.4157 3.04793 13.4676 3.06861L13.4685 3.06898L13.4685 3.06899L16.5284 4.37769L16.5288 4.37789L22.7399 6.93875C22.9061 7.00682 23.0196 7.16354 23.0334 7.34325M23.0334 7.34325C23.0334 7.34336 23.0334 7.34348 23.0334 7.34359L22.9935 7.34662L23.0333 7.34291C23.0333 7.34302 23.0333 7.34314 23.0334 7.34325ZM10.6839 12.0713V13.4328L15.808 15.6222L21.4997 12.2527L20.2181 11.7237L16.0871 14.1699L10.6839 12.0713ZM10.6839 12.0713L15.6608 14.1985L15.6608 14.1985C15.7993 14.2577 15.9576 14.2471 16.087 14.1699L10.6839 12.0713ZM22.9751 11.9434L22.9751 11.9434L22.8058 12.5948C23.0314 12.4619 23.107 12.1702 22.9751 11.9434ZM15.8412 11.8369H15.8412L16.0623 11.7359L16.0827 11.7703L16.0828 11.7702C16.0828 11.7702 16.0828 11.7702 16.0828 11.7702L20.2138 9.32407L21.4997 9.85316L15.808 13.2269L10.6839 11.0376V9.67169L15.6564 11.7988C15.6564 11.7988 15.6564 11.7988 15.6565 11.7988C15.7149 11.8238 15.7777 11.8368 15.8412 11.8369ZM9.9454 8.55694L9.94522 8.55706L9.77699 8.95226H9.73699V8.95232V15.4362L7.61062 14.528V7.90466L13.3187 4.07586L15.3665 4.91205L9.9454 8.55694ZM21.5169 7.44911L15.808 10.8229L11.1998 8.85278L16.4093 5.34991L21.5169 7.44911ZM6.65953 14.1142L2.53714 12.3505L3.91025 11.5754L6.6636 12.7526L6.65953 14.1142ZM6.6636 10.3443L6.65953 11.7146L2.53672 9.95063L3.91035 9.16702L6.6636 10.3443ZM6.6636 7.95768L6.65953 9.31499L2.53721 7.55547L3.91025 6.7804L6.6636 7.95768ZM8.18023 1.96348L12.2501 3.64222L7.09389 7.10501L2.53706 5.15582L8.18023 1.96348ZM20.2135 14.1017L21.5008 14.6518L15.808 18.0219L10.6839 15.8325V14.4708L15.6565 16.5763C15.795 16.6355 15.9533 16.6249 16.0828 16.5477L20.2135 14.1017Z" fill="#D0D0D0" stroke="#D0D0D0" stroke-width="0.08"/>
</svg>
