<svg width="26" height="25" viewBox="0 0 26 25" fill="none" xmlns="http://www.w3.org/2000/svg">
<path fill-rule="evenodd" clip-rule="evenodd" d="M25 23.197C25 22.9747 24.9243 22.7894 24.7728 22.6412L18.8454 17.2073C19.5689 16.3508 20.1411 15.3831 20.5617 14.3043C20.9824 13.2254 21.1928 12.0849 21.1928 10.8825C21.1928 9.5154 20.9277 8.23069 20.3977 7.02831C19.8676 5.82594 19.144 4.78005 18.227 3.89063C17.3099 3.0012 16.2371 2.29708 15.0087 1.77825C13.7803 1.25941 12.4762 1 11.0964 1C9.69971 1 8.38719 1.25941 7.15879 1.77825C5.93039 2.29708 4.85766 3.0012 3.94057 3.89063C3.02348 4.78005 2.30412 5.82594 1.78247 7.02831C1.26082 8.23069 1 9.5154 1 10.8825C1 12.2496 1.26082 13.5343 1.78247 14.7367C2.30412 15.939 3.02348 16.9849 3.94057 17.8743C4.85766 18.7638 5.93039 19.4679 7.15879 19.9867C8.38719 20.5056 9.69971 20.765 11.0964 20.765C12.3584 20.765 13.5532 20.5508 14.6806 20.1226C15.808 19.6944 16.8177 19.1014 17.7095 18.3438L23.6117 23.7529C23.78 23.9176 23.9735 24 24.1923 24C24.411 24 24.6046 23.9176 24.7728 23.7529C24.9243 23.6047 25 23.4194 25 23.197ZM14.3903 18.5538C13.3554 18.9902 12.2575 19.2085 11.0964 19.2085C9.91847 19.2085 8.81208 18.9902 7.7772 18.5538C6.74231 18.1173 5.84206 17.5202 5.07641 16.7626C4.31077 16.0049 3.70499 15.1237 3.25907 14.119C2.81314 13.1143 2.59018 12.0354 2.59018 10.8825C2.59018 9.72952 2.81314 8.65069 3.25907 7.64597C3.70499 6.64125 4.31077 5.76007 5.07641 5.00241C5.84206 4.24474 6.74231 3.64768 7.7772 3.21121C8.81208 2.77473 9.91847 2.55649 11.0964 2.55649C12.2575 2.55649 13.3554 2.77473 14.3903 3.21121C15.4252 3.64768 16.3255 4.24474 17.0911 5.00241C17.8568 5.76007 18.4625 6.64125 18.9085 7.64597C19.3544 8.65069 19.5773 9.72952 19.5773 10.8825C19.5773 12.0354 19.3544 13.1143 18.9085 14.119C18.4625 15.1237 17.8568 16.0049 17.0911 16.7626C16.3255 17.5202 15.4252 18.1173 14.3903 18.5538Z" fill="white"/>
<path d="M24.7728 22.6412L24.8428 22.5697L24.8404 22.5674L24.7728 22.6412ZM18.8454 17.2073L18.769 17.1427L18.707 17.2161L18.7778 17.281L18.8454 17.2073ZM15.0087 1.77825L14.9698 1.87037L15.0087 1.77825ZM7.15879 1.77825L7.1977 1.87037L7.15879 1.77825ZM1.78247 7.02831L1.87421 7.06811L1.78247 7.02831ZM1.78247 14.7367L1.87421 14.6968L1.78247 14.7367ZM3.94057 17.8743L3.87095 17.9461L3.94057 17.8743ZM17.7095 18.3438L17.7771 18.27L17.712 18.2104L17.6448 18.2675L17.7095 18.3438ZM23.6117 23.7529L23.6817 23.6814L23.6793 23.6792L23.6117 23.7529ZM24.7728 23.7529L24.8428 23.8244V23.8244L24.7728 23.7529ZM14.3903 18.5538L14.4292 18.6459L14.3903 18.5538ZM7.7772 18.5538L7.73834 18.6459H7.73834L7.7772 18.5538ZM5.07641 16.7626L5.14675 16.6915L5.07641 16.7626ZM3.25907 14.119L3.35047 14.0784L3.25907 14.119ZM3.25907 7.64597L3.35047 7.68654L3.25907 7.64597ZM5.07641 5.00241L5.14675 5.07349L5.07641 5.00241ZM7.7772 3.21121L7.73834 3.11907L7.7772 3.21121ZM14.3903 3.21121L14.4292 3.11907L14.3903 3.21121ZM17.0911 5.00241L17.0208 5.07349L17.0911 5.00241ZM18.9085 7.64597L18.8171 7.68654L18.9085 7.64597ZM18.9085 14.119L18.8171 14.0784V14.0784L18.9085 14.119ZM24.7029 22.7126C24.8341 22.841 24.9 23.0001 24.9 23.197H25.1C25.1 22.9493 25.0145 22.7378 24.8428 22.5697L24.7029 22.7126ZM18.7778 17.281L24.7053 22.7149L24.8404 22.5674L18.9129 17.1336L18.7778 17.281ZM20.4686 14.268C20.0518 15.3369 19.4852 16.2949 18.769 17.1427L18.9217 17.2718C19.6527 16.4066 20.2304 15.4294 20.6549 14.3406L20.4686 14.268ZM21.0928 10.8825C21.0928 12.0729 20.8846 13.2011 20.4686 14.268L20.6549 14.3406C21.0803 13.2498 21.2928 12.0968 21.2928 10.8825H21.0928ZM20.3062 7.06865C20.8304 8.2578 21.0928 9.52872 21.0928 10.8825H21.2928C21.2928 9.50208 21.0251 8.20358 20.4892 6.98798L20.3062 7.06865ZM18.1573 3.96241C19.0649 4.84261 19.7812 5.87773 20.3062 7.06865L20.4892 6.98798C19.9541 5.77415 19.2232 4.7175 18.2966 3.81884L18.1573 3.96241ZM14.9698 1.87037C16.1873 2.38459 17.2495 3.08198 18.1573 3.96241L18.2966 3.81884C17.3702 2.92042 16.2869 2.20956 15.0476 1.68613L14.9698 1.87037ZM11.0964 1.1C12.4633 1.1 13.7542 1.35691 14.9698 1.87037L15.0476 1.68613C13.8065 1.16191 12.4891 0.9 11.0964 0.9V1.1ZM7.1977 1.87037C8.41321 1.35698 9.71243 1.1 11.0964 1.1V0.9C9.68699 0.9 8.36118 1.16185 7.11988 1.68613L7.1977 1.87037ZM4.01019 3.96241C4.91801 3.08198 5.9802 2.38459 7.1977 1.87037L7.11988 1.68613C5.88058 2.20956 4.79732 2.92042 3.87095 3.81884L4.01019 3.96241ZM1.87421 7.06811C2.39079 5.87743 3.10274 4.84249 4.01019 3.96241L3.87095 3.81884C2.94422 4.71762 2.21745 5.77445 1.69073 6.98851L1.87421 7.06811ZM1.1 10.8825C1.1 9.52849 1.35824 8.25739 1.87421 7.06811L1.69073 6.98851C1.1634 8.20399 0.9 9.50231 0.9 10.8825H1.1ZM1.87421 14.6968C1.35824 13.5076 1.1 12.2365 1.1 10.8825H0.9C0.9 12.2627 1.1634 13.561 1.69073 14.7765L1.87421 14.6968ZM4.01019 17.8026C3.10274 16.9225 2.39079 15.8875 1.87421 14.6968L1.69073 14.7765C2.21745 15.9905 2.94422 17.0473 3.87095 17.9461L4.01019 17.8026ZM7.1977 19.8946C5.9802 19.3804 4.91801 18.683 4.01019 17.8026L3.87095 17.9461C4.79732 18.8445 5.88058 19.5554 7.11988 20.0788L7.1977 19.8946ZM11.0964 20.665C9.71243 20.665 8.41321 20.408 7.1977 19.8946L7.11988 20.0788C8.36118 20.6031 9.68699 20.865 11.0964 20.865V20.665ZM14.6451 20.0291C13.5295 20.4529 12.3469 20.665 11.0964 20.665V20.865C12.37 20.865 13.5768 20.6488 14.7161 20.2161L14.6451 20.0291ZM17.6448 18.2675C16.7619 19.0176 15.7622 19.6048 14.6451 20.0291L14.7161 20.2161C15.8539 19.7839 16.8735 19.1852 17.7743 18.42L17.6448 18.2675ZM23.6793 23.6792L17.7771 18.27L17.6419 18.4175L23.5442 23.8267L23.6793 23.6792ZM24.1923 23.9C24.0018 23.9 23.8329 23.8294 23.6817 23.6815L23.5418 23.8244C23.7272 24.0059 23.9453 24.1 24.1923 24.1V23.9ZM24.7029 23.6815C24.5517 23.8294 24.3828 23.9 24.1923 23.9V24.1C24.4393 24.1 24.6574 24.0059 24.8428 23.8244L24.7029 23.6815ZM24.9 23.197C24.9 23.394 24.8341 23.5531 24.7029 23.6815L24.8428 23.8244C25.0145 23.6563 25.1 23.4448 25.1 23.197H24.9ZM11.0964 19.3085C12.2704 19.3085 13.3816 19.0877 14.4292 18.6459L14.3515 18.4616C13.3293 18.8927 12.2446 19.1085 11.0964 19.1085V19.3085ZM7.73834 18.6459C8.78612 19.0878 9.90578 19.3085 11.0964 19.3085V19.1085C9.93115 19.1085 8.83805 18.8927 7.81606 18.4616L7.73834 18.6459ZM5.00608 16.8336C5.78116 17.6006 6.69222 18.2047 7.73834 18.6459L7.81606 18.4616C6.7924 18.0299 5.90296 17.4398 5.14675 16.6915L5.00608 16.8336ZM3.16766 14.1596C3.61854 15.1754 4.23138 16.067 5.00608 16.8336L5.14675 16.6915C4.39015 15.9428 3.79144 15.072 3.35047 14.0784L3.16766 14.1596ZM2.49018 10.8825C2.49018 12.0487 2.71579 13.1414 3.16766 14.1596L3.35047 14.0784C2.91049 13.0871 2.69018 12.0222 2.69018 10.8825H2.49018ZM3.16766 7.6054C2.71579 8.62352 2.49018 9.71624 2.49018 10.8825H2.69018C2.69018 9.7428 2.91049 8.67787 3.35047 7.68654L3.16766 7.6054ZM5.00608 4.93133C4.23138 5.69794 3.61854 6.58952 3.16766 7.6054L3.35047 7.68654C3.79144 6.69297 4.39015 5.8222 5.14675 5.07349L5.00608 4.93133ZM7.73834 3.11907C6.69222 3.56028 5.78116 4.16432 5.00608 4.93133L5.14675 5.07349C5.90296 4.32517 6.7924 3.73509 7.81606 3.30335L7.73834 3.11907ZM11.0964 2.45649C9.90578 2.45649 8.78612 2.67715 7.73834 3.11907L7.81606 3.30335C8.83805 2.87231 9.93115 2.65649 11.0964 2.65649V2.45649ZM14.4292 3.11907C13.3816 2.67722 12.2704 2.45649 11.0964 2.45649V2.65649C12.2446 2.65649 13.3293 2.87223 14.3515 3.30335L14.4292 3.11907ZM17.1614 4.93133C16.3864 4.16432 15.4753 3.56028 14.4292 3.11907L14.3515 3.30335C15.3751 3.73509 16.2646 4.32517 17.0208 5.07349L17.1614 4.93133ZM18.9999 7.6054C18.549 6.58952 17.9361 5.69794 17.1614 4.93133L17.0208 5.07349C17.7774 5.8222 18.3761 6.69297 18.8171 7.68654L18.9999 7.6054ZM19.6773 10.8825C19.6773 9.71624 19.4517 8.62352 18.9999 7.6054L18.8171 7.68654C19.257 8.67787 19.4773 9.7428 19.4773 10.8825H19.6773ZM18.9999 14.1596C19.4517 13.1414 19.6773 12.0487 19.6773 10.8825H19.4773C19.4773 12.0222 19.257 13.0871 18.8171 14.0784L18.9999 14.1596ZM17.1614 16.8336C17.9361 16.067 18.549 15.1754 18.9999 14.1596L18.8171 14.0784C18.3761 15.072 17.7774 15.9428 17.0208 16.6915L17.1614 16.8336ZM14.4292 18.6459C15.4753 18.2047 16.3864 17.6006 17.1614 16.8336L17.0208 16.6915C16.2646 17.4398 15.3751 18.0299 14.3515 18.4616L14.4292 18.6459Z" fill="white"/>
</svg>
