<svg width="24" height="24" viewBox="0 0 24 24" fill="none" xmlns="http://www.w3.org/2000/svg">
<path fill-rule="evenodd" clip-rule="evenodd" d="M14.4633 0.469208C13.6579 0.156401 12.8407 0 12.0117 0C11.1828 0 10.3617 0.156401 9.54839 0.469208C8.73509 0.782015 8.01173 1.18866 7.3783 1.68915C6.74486 2.18964 6.23265 2.75269 5.84164 3.3783C5.45063 4.00391 5.25513 4.62952 5.25513 5.25513V9.0088C5.25513 9.41545 5.30205 9.91202 5.39589 10.4985C5.48974 11.085 5.65005 11.6872 5.87683 12.305C6.10362 12.9228 6.39687 13.5288 6.7566 14.1232C7.11633 14.7175 7.56207 15.2258 8.09384 15.6481L1.50147 18.7683L0.750733 19.2023C0.250242 19.4917 0 19.8397 0 20.2463V22.522C0 22.9286 0.144671 23.2766 0.434018 23.566C0.723364 23.8553 1.07918 24 1.50147 24H22.522C22.9286 24 23.2766 23.8553 23.566 23.566C23.8553 23.2766 24 22.9286 24 22.522V20.2463C24 19.8084 23.7537 19.4526 23.261 19.1789L22.522 18.7683L15.9765 15.6481C16.4927 15.2414 16.9306 14.7527 17.2903 14.1818C17.6501 13.6109 17.9394 13.0166 18.1584 12.3988C18.3773 11.781 18.5337 11.175 18.6276 10.5806C18.7214 9.98631 18.7683 9.46237 18.7683 9.0088V5.25513C18.7683 4.62952 18.5689 4.00391 18.1701 3.3783C17.7713 2.75269 17.2551 2.18964 16.6217 1.68915C15.9883 1.18866 15.2688 0.782015 14.4633 0.469208ZM10.1114 1.8651C10.7371 1.62268 11.3705 1.50147 12.0117 1.50147C12.6373 1.50147 13.2669 1.62268 13.9003 1.8651C14.5337 2.10753 15.0968 2.41251 15.5894 2.78006C16.0821 3.14761 16.4848 3.55034 16.7977 3.98827C17.1105 4.4262 17.2669 4.84848 17.2669 5.25513V9.0088C17.2669 9.72825 17.0987 10.6628 16.7625 11.8123C16.4262 12.9619 15.8514 13.8495 15.0381 14.4751C14.8348 14.6315 14.6823 14.8309 14.5806 15.0733C14.479 15.3157 14.4438 15.5699 14.4751 15.8358C14.5064 16.1017 14.6002 16.3402 14.7566 16.5513C14.913 16.7625 15.1085 16.9228 15.3431 17.0323L21.8886 20.129C21.9042 20.129 22.0098 20.1799 22.2053 20.2815C22.4008 20.3832 22.4985 20.6373 22.4985 21.044V22.4985L1.50147 22.522V20.9971C1.50147 20.6843 1.58358 20.4692 1.7478 20.3519C1.91202 20.2346 2.04106 20.1603 2.1349 20.129L8.72727 17.0088C8.96188 16.8993 9.15347 16.739 9.30205 16.5279C9.45064 16.3167 9.54839 16.086 9.59531 15.8358C9.62659 15.5699 9.5914 15.3157 9.48974 15.0733C9.38807 14.8309 9.23558 14.6315 9.03226 14.4751C8.25024 13.8495 7.67547 12.9658 7.30792 11.824C6.94037 10.6823 6.7566 9.74389 6.7566 9.0088V5.25513C6.7566 4.86412 6.90909 4.44966 7.21408 4.01173C7.51906 3.5738 7.9218 3.16716 8.42229 2.79179C8.92278 2.41642 9.48582 2.10753 10.1114 1.8651Z" fill="white"/>
</svg>
